<?xml version="1.0" encoding="UTF-8" standalone="no"?>
<!-- Created with Inkscape (http://www.inkscape.org/) -->

<svg
   xmlns:dc="http://purl.org/dc/elements/1.1/"
   xmlns:cc="http://creativecommons.org/ns#"
   xmlns:rdf="http://www.w3.org/1999/02/22-rdf-syntax-ns#"
   xmlns:svg="http://www.w3.org/2000/svg"
   xmlns="http://www.w3.org/2000/svg"
   xmlns:sodipodi="http://sodipodi.sourceforge.net/DTD/sodipodi-0.dtd"
   xmlns:inkscape="http://www.inkscape.org/namespaces/inkscape"
   width="231.55695mm"
   height="301.01666mm"
   viewBox="0 0 231.55694 301.01665"
   version="1.1"
   id="svg8"
   inkscape:version="0.92.1 r15371"
   sodipodi:docname="easterbasket.svg">
  <defs
     id="defs2" />
  <sodipodi:namedview
     id="base"
     pagecolor="#ffffff"
     bordercolor="#666666"
     borderopacity="1.0"
     inkscape:pageopacity="0.0"
     inkscape:pageshadow="2"
     inkscape:zoom="0.23751142"
     inkscape:cx="826.17407"
     inkscape:cy="587.85265"
     inkscape:document-units="mm"
     inkscape:current-layer="layer1"
     showgrid="false"
     fit-margin-top="0"
     fit-margin-left="0"
     fit-margin-right="0"
     fit-margin-bottom="0"
     inkscape:window-width="1366"
     inkscape:window-height="706"
     inkscape:window-x="-8"
     inkscape:window-y="-8"
     inkscape:window-maximized="1"
     inkscape:snap-global="false" />
  <metadata
     id="metadata5">
    <rdf:RDF>
      <cc:Work
         rdf:about="">
        <dc:format>image/svg+xml</dc:format>
        <dc:type
           rdf:resource="http://purl.org/dc/dcmitype/StillImage" />
        <dc:title></dc:title>
      </cc:Work>
    </rdf:RDF>
  </metadata>
  <g
     inkscape:label="Layer 1"
     inkscape:groupmode="layer"
     id="layer1"
     transform="translate(476.862,45.152413)">
    <g
       id="g7405">
      <path
         inkscape:connector-curvature="0"
         id="path7379"
         d="m -346.41824,138.46487 -50.47606,-4.53717 -14.74582,1.13429 -26.6559,-1.13429 -30.05878,7.94005 -6.23861,11.34294 2.26858,9.07434 17.01441,8.50721 8.5072,10.20864 10.77579,34.02881 6.23861,26.08875 v 0 l 2.83574,3.40289 90.17634,8.5072 20.98443,0.56713 17.58155,-7.94004 5.67146,-4.53718 4.53718,-8.5072 10.20864,-22.11873 13.04438,-24.38731 15.31296,-12.47723 2.83573,-6.80576 -2.83573,-10.77579 -20.41728,-10.20864 -28.92449,-3.40288 -28.35734,-3.40288 z"
         style="fill:#7f6137;stroke:none;stroke-width:0.26458332px;stroke-linecap:butt;stroke-linejoin:miter;stroke-opacity:1;fill-opacity:1" />
      <path
         inkscape:connector-curvature="0"
         id="path7381"
         d="m -424.95365,141.47363 -24.51228,1.92253 -8.65139,2.40317 1.92253,7.69012 3.84507,4.3257 6.24822,1.92253 h 19.70595 l 33.6443,-0.48063 28.35734,0.48063 26.91544,2.40316 37.48937,7.2095 27.39607,3.84506 14.89962,-3.36443 1.4419,-5.28696 -5.28696,-3.84506 -12.97709,-5.28696 -2.40316,-6.24823 -13.93836,2.40316 -14.41898,-1.92253 -6.72886,0.48064 -12.01583,-1.4419 -22.10911,-4.80633 h -12.01582 l -13.93835,1.4419 -32.20241,-1.92253 z"
         style="fill:#b67f31;stroke:#000000;stroke-width:0.26458332px;stroke-linecap:butt;stroke-linejoin:miter;stroke-opacity:1;fill-opacity:1" />
      <path
         inkscape:connector-curvature="0"
         id="path7377"
         d="m -350.95541,-43.589247 -13.61153,5.104321 -13.04437,15.88011 -3.97003,19.2829904 3.40288,8.5072008 -2.26859,17.0144038 1.70144,18.148697 -5.10432,11.342936 1.1343,16.447256 4.53717,9.074349 -5.67147,9.641496 1.70144,11.342936 1.70144,16.447261 1.70144,7.3729 -5.67146,11.34294 2.83573,19.28299 1.70144,6.23861 7.94005,-1.13429 -1.70144,-10.77579 2.26859,-10.20864 v -17.0144 l -1.70144,-15.88011 3.97003,-18.1487 -3.40288,-23.25302 3.40288,-18.148696 0.56714,-31.760221 -3.97002,-15.312961 v -9.074348 l 1.13429,-7.940056 4.53718,-10.208642 13.04437,-7.940055 17.01441,7.940055 6.80576,9.641495 v 15.8801109 l -1.70144,14.7458161 5.67146,9.641494 -3.40288,11.342936 V 60.76576 l 0.56715,5.104323 -5.10432,5.671466 -1.13429,14.178671 3.97002,26.6559 -4.53717,19.28299 v 7.37291 l 25.52161,1.70144 2.26858,-2.83574 -9.07435,-6.80576 -6.80576,-6.80576 -1.70144,-10.20864 0.56715,-7.37291 4.53717,-20.98443 -1.13429,-20.984432 -0.56715,-19.282989 3.97003,-14.178671 V 16.528311 l -5.67147,-15.3129611 -1.13429,-18.1486989 -5.10432,-17.58155 -6.23862,-5.671467 z"
         style="fill:#7f6137;stroke:none;stroke-width:0.26458332px;stroke-linecap:butt;stroke-linejoin:miter;stroke-opacity:1;fill-opacity:1" />
      <path
         inkscape:connector-curvature="0"
         id="path7383"
         d="m -284.51304,150.2609 -8.5717,3.77155 -1.0286,7.5431 8.22883,3.42868 3.77155,-2.40008 h 6.51449 l -2.40008,-8.22883 z"
         style="fill:#96588b;stroke:none;stroke-width:0.26458332px;stroke-linecap:butt;stroke-linejoin:miter;stroke-opacity:1;fill-opacity:1" />
      <path
         inkscape:connector-curvature="0"
         id="path7385"
         d="m -297.88489,156.7754 -7.88597,0.68573 -2.40007,6.51449 3.77154,4.80016 9.94318,0.34287 V 157.804 Z"
         style="fill:#589688;stroke:none;stroke-width:0.26458332px;stroke-linecap:butt;stroke-linejoin:miter;stroke-opacity:1;fill-opacity:1" />
      <path
         inkscape:connector-curvature="0"
         id="path7387"
         d="m -323.94286,149.57517 3.42868,3.77155 1.71434,8.5717 -9.94318,-1.71434 -5.48588,0.34286 1.71434,-4.11441 6.85736,-8.91457 z"
         style="fill:#715896;stroke:none;stroke-width:0.26458332px;stroke-linecap:butt;stroke-linejoin:miter;stroke-opacity:1;fill-opacity:1" />
      <path
         inkscape:connector-curvature="0"
         id="path7389"
         d="m -348.97223,148.54656 h -8.91457 l -4.80015,8.22884 h 8.91457 l 10.97178,1.37147 -1.71434,-8.5717 z"
         style="fill:#dd666e;stroke:none;stroke-width:0.26458332px;stroke-linecap:butt;stroke-linejoin:miter;stroke-opacity:1;fill-opacity:1" />
      <path
         inkscape:connector-curvature="0"
         id="path7391"
         d="m -402.45964,145.80362 -7.20023,3.08581 -2.40007,5.14302 3.42868,3.42868 11.65751,-0.68573 4.11441,-4.45729 -8.5717,-6.51449 z"
         style="fill:#66afdd;stroke:none;stroke-width:0.26458332px;stroke-linecap:butt;stroke-linejoin:miter;stroke-opacity:1;fill-opacity:1" />
      <path
         inkscape:connector-curvature="0"
         id="path7393"
         d="m -418.70542,150.12502 h -6.24823 l -5.28696,7.2095 7.69012,2.88379 11.05456,-2.40316 -1.92253,-7.20949 z"
         style="fill:#5a2ab7;stroke:none;stroke-width:0.26458332px;stroke-linecap:butt;stroke-linejoin:miter;stroke-opacity:1;fill-opacity:1" />
      <path
         inkscape:connector-curvature="0"
         id="path7375"
         d="m -333.47478,255.79984 c -0.77611,-0.08 -3.63361,-0.3783 -6.35,-0.66292 -2.71639,-0.28462 -7.08202,-0.54024 -9.70139,-0.56803 -4.84028,-0.0514 -9.69103,-0.38879 -14.46389,-1.00611 -1.45521,-0.18822 -5.18584,-0.51581 -8.29028,-0.72798 -3.10444,-0.21217 -7.33346,-0.62222 -9.39781,-0.91122 -3.98863,-0.5584 -9.92272,-1.04899 -18.33253,-1.51562 -2.83391,-0.15724 -5.3029,-0.37881 -5.48664,-0.49237 -0.18375,-0.11356 -2.46885,-0.45571 -5.078,-0.76033 -2.60915,-0.30463 -5.69641,-0.70435 -6.86058,-0.88827 -1.16416,-0.18392 -3.04614,-0.43443 -4.18216,-0.55668 -2.43673,-0.26223 -5.23375,-1.01884 -6.86075,-1.85589 -2.63957,-1.35797 -4.32448,-5.88242 -5.34686,-14.35776 -0.32038,-2.65596 -1.10568,-5.50066 -1.68687,-6.11061 -0.39121,-0.41057 -0.6357,-2.23277 -0.47017,-3.50412 0.0317,-0.24339 -0.16606,-0.95776 -0.43945,-1.5875 -0.27339,-0.62975 -0.77306,-1.85937 -1.11037,-2.73249 -0.33731,-0.87313 -0.75063,-1.85496 -0.91848,-2.18186 -0.16785,-0.3269 -0.92889,-2.39065 -1.6912,-4.58611 -0.7623,-2.19547 -1.72921,-4.86488 -2.14869,-5.93203 -0.41948,-1.06715 -1.05091,-2.97215 -1.40319,-4.23334 -3.50127,-12.53484 -4.3717,-15.11089 -6.66529,-19.72605 -1.53094,-3.08055 -2.57229,-4.63862 -4.42926,-6.62705 -2.83554,-3.03628 -3.05341,-3.17151 -6.44133,-3.99789 -2.66157,-0.64921 -7.63139,-2.81527 -8.06348,-3.51441 -0.13514,-0.21866 -0.62084,-0.54019 -1.07934,-0.71451 -0.4585,-0.17432 -1.19714,-0.85574 -1.64143,-1.51426 -0.44428,-0.65852 -1.23875,-1.81579 -1.76548,-2.57171 -1.41342,-2.02842 -2.72887,-5.95789 -2.98511,-8.91699 -0.20001,-2.30982 -0.13265,-2.77361 0.59679,-4.10891 0.49523,-0.90657 1.28903,-1.72779 1.99594,-2.06489 0.64552,-0.30783 1.17368,-0.74815 1.17368,-0.9785 0,-0.6672 2.09096,-4.77654 2.67861,-5.26426 0.29367,-0.24372 1.20018,-0.56275 2.01447,-0.70895 0.8143,-0.14621 3.30616,-0.89116 5.53748,-1.65544 2.23132,-0.76429 4.82424,-1.50305 5.76205,-1.6417 0.93781,-0.13865 2.36656,-0.49778 3.175,-0.79808 0.80844,-0.30029 2.50177,-0.75909 3.76295,-1.01954 5.2686,-1.08803 6.20747,-1.30475 6.87917,-1.5879 0.38805,-0.16358 1.10243,-0.28225 1.5875,-0.26371 0.48507,0.0185 1.81772,-0.1581 2.96144,-0.39253 2.46075,-0.50438 13.70091,-0.29145 16.9705,0.32147 1.18512,0.22217 7.55068,0.46598 14.46389,0.55399 6.79097,0.0865 14.62476,0.19842 17.40842,0.24881 l 5.0612,0.0916 0.85603,-2.94777 c 0.47081,-1.62126 1.14644,-3.60564 1.50139,-4.40972 1.10721,-2.50815 1.16809,-2.80039 1.18642,-5.69529 0.0154,-2.42711 -0.88984,-9.00697 -1.33912,-9.73392 -0.59688,-0.96577 -1.3064,-9.50627 -1.4521,-17.478984 -0.15568,-8.51904 -0.11407,-9.40555 0.54639,-11.64167 0.3932,-1.33124 0.84894,-3.71499 1.01277,-5.29722 0.27158,-2.62301 0.22796,-3.01203 -0.49451,-4.40973 -2.09471,-4.05246 -2.90191,-6.87365 -3.1639,-11.05793 -0.29478,-4.707974 0.64167,-10.336791 2.37694,-14.2875 0.99358,-2.262064 1.95337,-4.129578 2.51743,-4.898271 0.70117,-0.955541 0.76349,-1.85057 0.27882,-4.004306 -0.47513,-2.111362 -1.45148,-15.040037 -1.23254,-16.321036 0.0995,-0.582084 0.1862,-4.182524 0.19269,-8.000976 0.01,-5.5947112 0.11022,-7.0243222 0.51871,-7.3633342 0.59399,-0.492965 0.72574,-5.96901096 0.16866,-7.00992396 -1.10554,-2.06572304 -1.14661,-10.11509984 -0.0676,-13.25632484 0.39988,-1.164167 1.03722,-3.321747 1.41632,-4.794623 0.3791,-1.472877 1.17997,-3.831062 1.7797,-5.240412 0.59973,-1.409351 1.09042,-2.837851 1.09042,-3.174446 0,-0.336595 0.37429,-0.782529 0.83176,-0.990966 0.5078,-0.231368 0.91572,-0.798745 1.04731,-1.456714 0.11855,-0.592755 0.82795,-1.690137 1.57644,-2.438627 0.74849,-0.748489 1.47588,-1.586888 1.61643,-1.863108 1.81061,-3.558368 3.13031,-4.951771 5.33548,-5.63345 1.33853,-0.413779 1.79057,-0.732526 1.87614,-1.322917 0.062,-0.427787 0.30013,-0.7989 0.52917,-0.824694 0.22904,-0.02579 1.05144,-0.08648 1.82755,-0.134865 2.71631,-0.169329 4.32789,-0.807741 4.6775,-1.85295 0.30968,-0.925801 0.42579,-0.96638 2.93774,-1.026721 1.43842,-0.03455 4.15612,-0.1687 6.03933,-0.298106 3.91086,-0.268737 6.44939,0.314984 8.11297,1.865531 0.69979,0.652252 1.45103,0.929415 2.82222,1.041227 2.29004,0.186741 5.24845,1.296838 6.22428,2.335564 0.39924,0.424975 0.96243,1.338777 1.25152,2.030673 0.28909,0.691895 0.78077,1.469751 1.09263,1.728569 0.6738,0.559204 1.8668,3.079566 2.50593,5.294089 0.59427,2.059092 2.02203,6.065253 2.33653,6.556087 0.13479,0.210361 0.51987,2.035986 0.85574,4.056944 0.33587,2.020959 0.84702,3.956034 1.13589,4.300167 0.38405,0.457525 0.42023,0.730681 0.13461,1.016299 -0.38932,0.389327 -0.36052,1.95674 0.14488,7.8830048 0.13238,1.552222 0.2697,4.11866 0.30515,5.703193 0.0469,2.09509804 0.24776,3.201752 0.73637,4.056945 1.28822,2.254659 1.95745,4.029273 3.33704,8.8488912 2.11026,7.372242 2.05452,6.933735 1.9131,15.051583 -0.0863,4.953145 -0.32567,8.600765 -0.68489,10.436614 -0.30373,1.552222 -0.78477,4.171598 -1.06898,5.820834 -0.47219,2.740043 -0.62837,3.093494 -1.8112,4.098985 l -1.29445,1.100378 0.2462,2.603789 c 0.13542,1.432088 0.55475,5.143794 0.93186,8.248238 0.37711,3.104446 0.76229,8.025696 0.85596,10.936116 0.0937,2.91041 0.26533,7.00326 0.38148,9.0952 0.26739,4.81607 -0.16139,8.52674 -1.98598,17.18674 -0.18396,0.87313 -0.40738,2.30188 -0.49648,3.175 -0.0891,0.873134 -0.40728,2.460634 -0.70707,3.527784 -0.29979,1.06715 -0.85185,3.08197 -1.22681,4.47736 -0.37496,1.39539 -0.94748,3.05096 -1.27227,3.67903 -0.69444,1.34291 -0.63159,1.98033 1.05677,10.71722 0.44374,2.29626 0.71846,2.94862 1.47408,3.50041 0.51079,0.373 2.38568,2.11925 4.16642,3.88055 1.78074,1.76131 3.86478,3.55007 4.63121,3.97503 3.94298,2.18624 6.81188,3.54952 7.91989,3.76345 0.67909,0.13112 2.02847,0.53429 2.99861,0.89594 3.19793,1.19212 4.19632,1.48943 7.8297,2.33161 1.978,0.45848 3.88893,0.99017 4.2465,1.18153 0.35757,0.19137 3.87199,0.46329 7.80981,0.60427 l 7.15969,0.25634 1.41539,1.18252 c 0.77846,0.65039 1.67818,1.18182 1.99937,1.18095 1.26723,-0.004 8.8845,2.47103 13.51272,4.38955 1.8436,0.76422 4.12197,1.40049 5.75739,1.60784 1.48854,0.18873 2.85632,0.43577 3.0395,0.54899 0.18319,0.11321 0.64921,0.82553 1.0356,1.58292 0.38639,0.75739 1.1874,1.87309 1.78002,2.47933 0.99036,1.01312 1.02849,1.13808 0.4716,1.54529 -0.51319,0.37526 -0.57128,0.81537 -0.37967,2.8766 0.12442,1.33845 0.32521,2.98918 0.44621,3.66828 0.81463,4.57231 -0.0382,8.0589 -2.7427,11.21297 -0.54649,0.63734 -0.99363,1.292 -0.99363,1.45479 0,0.68677 -8.90085,9.16004 -10.80278,10.28383 -1.12973,0.66753 -2.81914,2.00744 -3.75423,2.97758 -1.42814,1.48167 -1.66992,1.92448 -1.51118,2.7676 0.14294,0.75918 0.0388,1.04298 -0.42727,1.16487 -0.69565,0.18192 -3.02219,3.36677 -3.44109,4.71058 -0.15121,0.48507 -1.12484,2.40375 -2.16363,4.26373 -1.03879,1.85999 -1.88871,3.53048 -1.88871,3.71221 0,0.18174 -0.5167,1.12056 -1.14821,2.08627 -0.63152,0.96572 -1.45429,2.47022 -1.82838,3.34335 -0.37409,0.87312 -1.04802,1.99306 -1.49762,2.48875 -0.4496,0.49568 -0.81746,1.17596 -0.81746,1.51171 0,0.33576 -0.23124,0.9634 -0.51387,1.39475 -0.28263,0.43135 -0.48727,1.45145 -0.45476,2.26689 0.0442,1.10874 -0.14217,1.69689 -0.73911,2.3323 -0.5957,0.6341 -0.73914,1.08514 -0.56534,1.77765 0.1281,0.51037 0.12978,1.33883 0.004,1.84103 -0.18882,0.75232 -0.31977,0.83788 -0.7438,0.48597 -0.5961,-0.49472 -0.56401,-0.54935 -0.67045,1.14149 -0.0924,1.46802 -0.72463,2.44447 -1.41195,2.18072 -0.57582,-0.22097 -0.9623,0.7352 -0.7075,1.75042 0.14013,0.55832 -0.11135,1.06177 -0.91115,1.82405 -0.60759,0.57908 -1.32172,1.56882 -1.58697,2.19941 -0.26525,0.63059 -0.64913,1.14653 -0.85305,1.14653 -0.20393,0 -0.37078,0.26282 -0.37078,0.58406 0,0.32123 -0.43605,1.15467 -0.96899,1.85208 -0.53294,0.69741 -0.99086,1.3474 -1.0176,1.44441 -0.34833,1.26404 -0.64868,1.76389 -1.05989,1.76389 -0.35227,0 -0.43066,0.25534 -0.27221,0.88666 0.18379,0.73229 -0.0415,1.12804 -1.29411,2.27301 -0.83416,0.7625 -1.64565,1.30664 -1.80332,1.20919 -0.15766,-0.0974 -0.29096,0.11002 -0.29621,0.46102 -0.005,0.351 -0.56955,1.24063 -1.254,1.97696 -1.19655,1.28723 -1.28988,1.32235 -2.42416,0.91219 -1.09424,-0.39568 -1.27814,-0.3488 -2.53836,0.64714 -2.07865,1.64275 -5.43482,3.32577 -7.88504,3.95411 -6.83409,1.75258 -9.7908,2.16637 -16.40417,2.29578 -3.68653,0.0721 -7.33778,0.0657 -8.11389,-0.0143 z m 5.82083,-5.4036 c 1.79596,-1.24079 5.50085,-3.13794 6.52639,-3.34196 1.23475,-0.24563 2.12695,0.20402 1.84788,0.93128 -0.10737,0.27979 -1.48188,1.03994 -3.05447,1.68921 -3.59124,1.48273 -3.34391,2.03333 0.65909,1.46723 1.55717,-0.22021 3.05862,-0.31312 3.33655,-0.20647 0.27794,0.10665 0.87535,-0.038 1.32759,-0.32152 0.45224,-0.28349 1.66472,-0.61971 2.69441,-0.74717 1.9384,-0.23995 6.09022,-2.21705 6.36089,-3.02906 0.23241,-0.69722 -3.89978,-0.11326 -6.40669,0.90539 -1.15041,0.46745 -2.2304,0.76416 -2.39998,0.65936 -0.73585,-0.45479 -0.1794,-1.23156 1.54376,-2.155 1.93735,-1.03823 2.18337,-1.77619 0.52916,-1.58733 -0.68358,0.0781 -0.97013,-0.0485 -0.97013,-0.42856 0,-0.69353 0.83883,-1.12334 2.82222,-1.44609 2.86474,-0.46616 3.81283,-1.4101 1.4993,-1.49274 -0.7276,-0.026 -1.98911,-0.15319 -2.80335,-0.28265 -1.05974,-0.1685 -1.81159,-0.069 -2.64583,0.35006 -0.94254,0.4735 -1.72197,0.53973 -4.07582,0.34631 -2.81694,-0.23147 -2.91041,-0.21479 -2.91041,0.5192 0,0.99875 0.74856,1.24594 2.26123,0.74671 0.87646,-0.28925 1.43288,-0.29908 1.9281,-0.034 0.38286,0.2049 1.26344,0.41309 1.95685,0.46263 0.88784,0.0634 1.26094,0.25861 1.26144,0.65984 7.1e-4,0.48344 -0.70747,0.60722 -4.6736,0.81703 -2.57086,0.13599 -4.94238,0.14417 -5.27004,0.0182 -0.70731,-0.27202 -7.19615,2.82203 -7.48232,3.56777 -0.11353,0.29587 -0.69174,0.49534 -1.43587,0.49534 -1.94152,0 -1.68142,-1.13278 0.60629,-2.64046 1.01864,-0.67133 2.48708,-1.66706 3.26319,-2.21275 1.74341,-1.2258 4.33377,-2.22982 5.97192,-2.3147 1.13971,-0.0591 1.22977,-0.14543 1.15966,-1.11215 -0.0738,-1.0176 -0.0195,-1.05542 1.86426,-1.29917 1.06715,-0.13809 6.80168,-0.30691 12.7434,-0.37516 l 10.80314,-0.1241 1.3677,-1.01165 c 0.75224,-0.5564 1.70562,-1.34468 2.11864,-1.75173 0.41301,-0.40704 1.12739,-1.05757 1.5875,-1.44563 l 0.83656,-0.70555 -2.10681,-0.10814 c -2.21078,-0.11349 -3.00847,0.34397 -3.00847,1.7253 0,0.68713 -0.92843,1.17146 -1.24956,0.65186 -0.1176,-0.19029 -0.11285,-0.8057 0.0105,-1.36759 0.22242,-1.01267 0.20702,-1.02378 -1.75976,-1.26951 -2.58417,-0.32288 -5.04291,-0.0317 -5.75624,0.6816 -0.52269,0.52269 -0.4772,0.5684 0.56552,0.5684 0.62366,0 1.13393,0.16268 1.13393,0.36151 0,0.66397 -1.91327,1.1165 -3.80665,0.90036 -1.02651,-0.11718 -2.14328,-0.0649 -2.48171,0.11625 -0.87618,0.46892 -7.68386,-0.0379 -8.25099,-0.61432 -0.75435,-0.76666 0.96361,-1.93258 2.43961,-1.65568 1.31596,0.24687 1.38145,0.14116 0.62646,-1.0111 -0.73443,-1.12088 -0.33369,-1.91459 1.10273,-2.18407 1.20724,-0.22648 1.64041,-0.17711 4.9025,0.55874 0.97014,0.21884 4.09877,0.45222 6.95252,0.51861 l 5.18864,0.12072 1.07317,-1.90155 c 0.59025,-1.04586 1.07317,-2.23408 1.07317,-2.64049 0,-0.62031 -0.15573,-0.70622 -0.97013,-0.53519 -0.53358,0.11206 -1.84327,0.22585 -2.91042,0.25286 -1.06715,0.027 -2.18696,0.175 -2.48845,0.32885 -0.3015,0.15384 -0.7753,0.13935 -1.05288,-0.0322 -0.33748,-0.20857 -0.7403,-0.0967 -1.21572,0.33772 -0.64543,0.58972 -1.11284,0.62561 -5.06746,0.38904 -3.12231,-0.18678 -4.44497,-0.4004 -4.66891,-0.75408 -0.44708,-0.70611 -0.39474,-1.37883 0.11772,-1.51306 0.24254,-0.0635 1.06431,-0.31707 1.82617,-0.56345 0.99166,-0.32068 4.19881,-0.44242 11.28888,-0.4285 6.22297,0.0122 10.42815,-0.12584 11.31482,-0.37144 1.69754,-0.47023 3.35138,-1.54796 3.35138,-2.18396 0,-0.25407 0.23483,-0.65684 0.52185,-0.89504 0.75352,-0.62537 1.58921,-2.43245 1.37864,-2.98117 -0.0991,-0.25821 -0.8267,-0.57286 -1.61692,-0.69922 -1.62,-0.25905 -2.53713,0.29671 -2.90439,1.76 -0.14261,0.56821 -0.4654,0.85598 -0.96012,0.85598 -0.66586,0 -0.72512,-0.15038 -0.55602,-1.41111 0.18816,-1.40284 0.18235,-1.41111 -0.99106,-1.41111 -1.36648,0 -1.63333,0.3084 -1.67961,1.94115 -0.0227,0.80023 -0.22854,1.23875 -0.63091,1.34397 -0.94057,0.24596 -1.26504,-0.16481 -1.52526,-1.93096 -0.14415,-0.97845 -0.46142,-1.72854 -0.78337,-1.85208 -1.1767,-0.45154 -2.24212,-0.19067 -2.81938,0.69034 -0.67487,1.02998 -1.71937,1.01739 -1.72031,-0.0207 -3.5e-4,-0.57774 -0.27725,-0.72055 -1.57534,-0.81301 -1.15755,-0.0824 -1.68881,0.0439 -2.00541,0.47685 -0.23688,0.32396 -0.79827,0.57715 -1.24752,0.56263 -0.44924,-0.0145 -2.32168,-0.072 -4.16097,-0.12768 -3.31921,-0.10055 -3.34679,-0.10878 -3.69614,-1.10214 -0.46549,-1.32361 0.42478,-2.00353 2.61791,-1.99935 0.88009,0.002 3.71781,0.0161 6.30605,0.032 3.99163,0.0246 4.80817,-0.0636 5.37986,-0.58097 0.37069,-0.33547 0.67398,-0.79886 0.67398,-1.02976 0,-0.2309 0.32125,-0.71054 0.71389,-1.06588 0.54491,-0.49313 0.81155,-0.5484 1.12647,-0.23349 0.31491,0.31492 0.2209,0.67183 -0.39718,1.50783 -0.5345,0.72296 -0.69101,1.21399 -0.46042,1.44458 0.19213,0.19213 2.05504,0.36751 4.13979,0.38974 3.71754,0.0396 3.8051,0.0221 4.55068,-0.91299 0.85194,-1.06843 1.44102,-1.21179 1.74323,-0.42423 0.28533,0.74356 2.97441,0.68565 4.18205,-0.09 0.53814,-0.34567 1.59697,-1.83676 2.41522,-3.40121 l 1.45699,-2.7857 -1.35689,0.29332 c -0.74629,0.16133 -3.57939,0.32978 -6.29577,0.37433 -2.71639,0.0446 -5.31094,0.0946 -5.76567,0.11113 -0.50919,0.0186 -0.89638,0.29629 -1.00798,0.72304 -0.15288,0.58464 -0.25626,0.61785 -0.66157,0.21254 -0.32637,-0.32637 -1.92587,-0.55623 -4.98924,-0.717 -2.47988,-0.13014 -5.09972,-0.46084 -5.82186,-0.73488 -1.42499,-0.54076 -3.13133,-0.36541 -4.396,0.45175 -0.59804,0.38642 -0.9378,0.40784 -1.52074,0.0959 -0.89215,-0.47747 -0.79236,-0.96703 0.3728,-1.82891 1.05335,-0.77918 2.17979,-0.80648 7.43794,-0.18023 3.40638,0.4057 4.82363,0.41283 8.29027,0.0417 2.29982,-0.24623 4.23055,-0.46018 4.29051,-0.47542 0.06,-0.0152 0.004,-0.19736 -0.12397,-0.40469 -0.57828,-0.93569 -0.34016,-3.7059 0.4267,-4.96396 l 0.78266,-1.28397 -2.1847,-0.21031 c -1.20159,-0.11567 -4.37064,-0.24347 -7.04234,-0.28399 -4.15962,-0.0631 -4.94352,0.0122 -5.45545,0.52414 -0.45699,0.45699 -0.48268,0.59783 -0.10904,0.59783 0.26883,0 0.76377,0.24886 1.09985,0.55301 0.58053,0.52537 3.56867,1.31363 7.02511,1.85319 1.88599,0.29442 2.33962,1.22903 0.91221,1.87941 -0.69799,0.31802 -1.24081,0.31251 -2.36405,-0.024 -0.80191,-0.24026 -3.46144,-0.51182 -5.91007,-0.60347 -3.34221,-0.12509 -4.58396,-0.30002 -4.98121,-0.70171 -0.47109,-0.47636 -0.41301,-0.62977 0.52917,-1.39782 0.88402,-0.72064 0.97117,-0.91916 0.52917,-1.20526 -0.29105,-0.18838 -0.64823,-0.34495 -0.79375,-0.34792 -0.14553,-0.003 -0.26459,-0.23715 -0.26459,-0.5204 0,-0.30267 0.61816,-0.69383 1.49931,-0.94872 0.82462,-0.23855 1.8779,-0.72117 2.34063,-1.0725 0.70187,-0.5329 1.53132,-0.63878 5.00412,-0.63878 2.28953,0 4.55074,-0.1475 5.0249,-0.32777 0.60066,-0.22837 1.06232,-0.18933 1.52227,0.12873 0.36309,0.25108 1.54677,0.56548 2.63041,0.69866 1.56257,0.19205 2.06422,0.12892 2.42445,-0.30512 0.62173,-0.74914 1.32685,-0.6864 1.77891,0.15828 0.32559,0.60836 0.73866,0.70556 2.99861,0.70556 2.25996,0 2.67303,-0.0972 2.99862,-0.70556 0.20768,-0.38806 0.65133,-0.70556 0.98588,-0.70556 0.33456,0 0.80657,0.3175 1.04891,0.70556 0.45693,0.73166 1.55661,0.88686 3.51243,0.4957 0.78508,-0.15702 1.19827,-0.54749 1.64086,-1.55065 0.32536,-0.73744 1.06363,-1.93483 1.64062,-2.66087 0.57699,-0.72605 1.04907,-1.43661 1.04907,-1.57903 0,-0.14242 -1.90085,-0.37239 -4.22412,-0.51105 -3.10727,-0.18546 -4.57632,-0.13126 -5.55625,0.20502 -1.18432,0.40641 -6.00729,0.50115 -10.68074,0.2098 -1.13701,-0.0709 -1.23472,0.002 -1.23472,0.91641 0,1.42422 -0.85507,1.78129 -3.13317,1.30836 -1.03342,-0.21454 -3.50313,-0.34488 -5.48825,-0.28965 -3.19538,0.0889 -3.66501,0.0243 -4.09487,-0.56359 -0.34472,-0.47145 -0.38439,-0.85302 -0.13677,-1.3157 0.31778,-0.59379 0.69516,-0.63319 4.24879,-0.44353 3.68722,0.19678 3.92841,0.16762 4.42007,-0.53432 0.28602,-0.40835 0.71882,-0.74246 0.96178,-0.74246 0.24295,0 0.7278,-0.20918 1.07745,-0.46484 0.5957,-0.43559 0.59836,-0.5022 0.0422,-1.05833 -0.32642,-0.32643 -1.12841,-0.5935 -1.78219,-0.5935 -0.65379,0 -1.29338,-0.16936 -1.42131,-0.37636 -0.1364,-0.22069 -1.11063,-0.33012 -2.35546,-0.26458 -1.74261,0.0918 -2.1944,-0.002 -2.52224,-0.52625 -0.67154,-1.07278 0.58966,-1.71579 2.75855,-1.40643 0.97952,0.13972 3.15782,0.26 4.84066,0.2673 3.05762,0.0133 3.0598,0.0139 3.20083,0.9748 0.0776,0.52884 0.035,1.00509 -0.0947,1.05833 -0.12971,0.0532 -0.34508,0.54248 -0.47861,1.0872 l -0.24277,0.9904 5.39167,-0.0888 c 2.96541,-0.0488 6.38385,-0.23054 7.59652,-0.40384 1.98902,-0.28424 2.20487,-0.39616 2.20487,-1.14326 0,-0.4555 0.15482,-1.23539 0.34404,-1.73309 0.34318,-0.90262 0.3392,-0.90491 -1.57485,-0.90491 -2.05484,0 -6.6905,-0.42723 -13.23308,-1.21957 -2.23132,-0.27022 -5.08882,-0.5076 -6.35,-0.5275 -9.21441,-0.14541 -15.59372,-0.98698 -21.51945,-2.83889 -1.06715,-0.3335 -2.89278,-0.80313 -4.05694,-1.04361 -1.16417,-0.24048 -2.67229,-0.64427 -3.35139,-0.89731 -1.73604,-0.64688 -6.91643,-1.80978 -7.37746,-1.6561 -0.21101,0.0703 -0.38365,0.73267 -0.38365,1.47185 0,1.40639 -0.6527,2.03677 -1.36813,1.32134 -0.21767,-0.21767 -0.39576,-0.97976 -0.39576,-1.69352 0,-1.09864 -0.15657,-1.36261 -1.02042,-1.72043 -0.56122,-0.23247 -1.46839,-0.37079 -2.01592,-0.30738 -0.82094,0.0951 -1.03947,0.33181 -1.24616,1.35001 -0.35822,1.7647 -0.0122,3.07307 0.88076,3.33004 0.41575,0.11964 3.6134,0.37193 7.1059,0.56064 8.69186,0.46966 14.26476,1.14619 14.65612,1.77921 0.20006,0.32359 0.13722,0.67798 -0.17572,0.99102 -0.40464,0.40477 -1.16421,0.42023 -4.48515,0.0913 -2.19891,-0.2178 -4.61554,-0.49673 -5.37029,-0.61985 -1.06203,-0.17325 -1.44482,-0.0942 -1.69322,0.34967 -0.41923,0.74911 -2.67073,0.75945 -3.4922,0.016 -0.477,-0.43167 -1.71736,-0.59532 -5.49584,-0.72512 -2.68389,-0.0922 -5.54466,-0.31738 -6.35726,-0.50042 -2.2041,-0.49645 -3.13411,-0.0198 -3.18088,1.63028 -0.0207,0.73137 -0.14173,2.16241 -0.26888,3.18009 -0.20162,1.6137 -0.14685,1.8771 0.4283,2.05964 0.36273,0.11512 3.58712,0.35746 7.16532,0.53852 3.5782,0.18106 7.69644,0.59826 9.15165,0.92712 1.45521,0.32885 4.15396,0.61624 5.99722,0.63862 l 3.35139,0.0407 0.10934,0.94642 c 0.0735,0.63581 -0.10021,1.05262 -0.52917,1.27006 -0.8861,0.44916 -8.62344,-0.07 -11.21293,-0.75234 -1.99198,-0.5249 -4.53549,-0.70034 -16.23669,-1.11993 -2.71638,-0.0974 -5.37965,-0.35477 -5.91837,-0.57191 -0.55216,-0.22256 -1.66997,-0.30016 -2.56217,-0.17787 -0.95224,0.13052 -2.51286,0.001 -3.91783,-0.32463 -1.28432,-0.29785 -2.90947,-0.49353 -3.61144,-0.43484 l -1.2763,0.10672 0.0965,2.38884 c 0.0531,1.31385 -0.068,2.69625 -0.26907,3.072 -0.32211,0.60187 -0.20766,0.72293 0.96179,1.01734 3.10776,0.78238 5.06802,1.07453 8.55935,1.27564 2.03729,0.11736 4.73604,0.37912 5.99722,0.58169 1.26118,0.20257 3.76839,0.3576 5.57159,0.34452 1.80319,-0.0131 3.54944,0.1257 3.88055,0.3084 0.87683,0.48384 7.94221,1.00408 10.9246,0.8044 2.72011,-0.18211 3.61215,0.14931 3.61215,1.34205 0,0.35285 -0.19424,0.76159 -0.43164,0.90831 -0.53547,0.33093 -6.37826,0.20582 -10.45549,-0.22389 -12.20147,-1.28595 -16.30183,-1.63627 -17.68787,-1.51121 -0.87313,0.0788 -3.09563,-0.12499 -4.93889,-0.45283 -1.84327,-0.32784 -3.90702,-0.63943 -4.58611,-0.69242 -0.6791,-0.053 -2.82222,-0.28098 -4.7625,-0.50665 -1.94028,-0.22567 -4.40091,-0.36063 -5.46806,-0.29991 l -1.94028,0.11039 0.0681,2.78448 c 0.0374,1.53147 0.20706,2.92345 0.3769,3.09329 0.16985,0.16985 2.59983,0.47568 5.39997,0.67963 5.57789,0.40628 7.54955,0.66337 11.79393,1.53785 1.55222,0.31981 3.32578,0.48965 3.94124,0.37742 0.62566,-0.11408 1.21951,-0.0414 1.34696,0.16478 0.14609,0.23638 1.35305,0.29835 3.36145,0.17258 1.96479,-0.12304 4.62024,0.007 7.1197,0.34766 2.64342,0.36067 4.58341,0.44698 5.75906,0.25623 0.97507,-0.15822 2.24507,-0.15648 2.82222,0.004 0.57715,0.16033 2.71625,0.25767 4.75354,0.21631 3.76192,-0.0764 5.29166,0.29113 5.29166,1.27126 0,1.06237 -0.9952,1.37043 -3.44519,1.06642 -1.3066,-0.16213 -4.83626,-0.31639 -7.8437,-0.34281 -3.00743,-0.0264 -7.2143,-0.24355 -9.34861,-0.48251 -2.1343,-0.23896 -4.52482,-0.33919 -5.31225,-0.22272 -1.68831,0.2497 -8.48963,-0.50445 -12.73508,-1.41211 -1.48799,-0.31813 -1.82701,0.39717 -1.61746,3.41265 l 0.16268,2.34091 1.81356,0.25726 c 0.99745,0.14148 3.71855,0.29804 6.04689,0.34788 6.56818,0.14063 17.52261,0.85525 18.69722,1.21973 2.62245,0.81375 8.76309,1.53418 13.40555,1.57276 4.46936,0.0371 6.17362,0.34155 6.17362,1.10266 0,0.25442 -0.81853,0.73444 -1.81895,1.06673 -1.8442,0.61255 -1.82854,0.61262 -10.27304,-0.0521 -0.73275,-0.0577 -2.479,-0.41247 -3.88056,-0.7884 -3.21092,-0.86127 -5.34057,-1.08439 -12.60245,-1.32037 -3.20146,-0.10402 -6.46795,-0.33368 -7.25887,-0.51033 -0.79092,-0.17666 -2.01631,-0.22735 -2.72308,-0.11266 -0.70678,0.11469 -3.86966,-0.0612 -7.02864,-0.39083 -3.15897,-0.32964 -6.53733,-0.54806 -7.50747,-0.48535 l -1.76389,0.114 -0.20753,1.94028 c -0.11414,1.06716 -0.0704,2.31844 0.0972,2.78063 0.37428,1.03221 0.0578,2.15826 -0.60657,2.15826 -0.73578,0 -1.10344,-0.9763 -1.33014,-3.53212 -0.27653,-3.1175 -0.47308,-3.52343 -1.70592,-3.52343 -1.08573,0 -1.72374,0.838 -1.10732,1.45442 0.20428,0.20428 0.24169,0.93371 0.0903,1.76141 -0.24256,1.3265 0.20704,3.80411 0.79747,4.39454 0.13688,0.13687 2.35668,0.45911 4.9329,0.71608 2.57623,0.25697 5.71592,0.62135 6.9771,0.80974 1.26118,0.18839 3.95993,0.43016 5.99722,0.53728 2.0373,0.10712 4.73605,0.34986 5.99723,0.53943 1.26118,0.18956 3.44287,0.51053 4.84821,0.71326 1.40534,0.20272 7.67597,0.46964 13.93472,0.59314 6.25876,0.1235 11.73675,0.35638 12.17332,0.5175 0.95261,0.35159 1.05454,1.55714 0.17161,2.02967 -0.55539,0.29723 -8.53615,0.21217 -9.44191,-0.10064 -0.19946,-0.0689 -1.28021,0.0186 -2.40167,0.1945 -1.39493,0.21874 -2.50618,0.19057 -3.5179,-0.0892 -0.81339,-0.22492 -3.62201,-0.45122 -6.24138,-0.5029 -2.61938,-0.0517 -5.55625,-0.28165 -6.52639,-0.51105 -0.97014,-0.2294 -2.47827,-0.46353 -3.35139,-0.52027 -0.87313,-0.0568 -3.4925,-0.217 -5.82084,-0.35611 -2.32833,-0.1391 -4.78895,-0.41702 -5.46805,-0.6176 -0.6791,-0.20058 -2.2666,-0.49181 -3.52778,-0.64719 -1.26118,-0.15537 -4.11868,-0.53368 -6.35,-0.8407 -5.57722,-0.76739 -14.93912,-1.3238 -17.28611,-1.02738 -1.74396,0.22027 -1.8332,0.27042 -0.88195,0.49571 0.58209,0.13785 1.82284,0.26942 2.75722,0.29238 0.93439,0.023 2.03406,0.22111 2.44371,0.44035 0.40966,0.21924 1.62953,0.43968 2.71084,0.48987 1.08131,0.0502 2.25139,0.20819 2.60019,0.35113 0.34879,0.14293 1.25668,0.17639 2.01752,0.0743 0.76084,-0.10205 2.06296,-0.0238 2.8936,0.17388 0.83064,0.19769 3.41526,0.38036 5.74359,0.40594 3.95279,0.0434 4.23334,0.0923 4.23334,0.73759 0,0.50268 -0.32705,0.75799 -1.19958,0.93644 -1.74856,0.35762 -16.97178,-0.62851 -19.70251,-1.27629 -0.71905,-0.17057 -0.79132,-0.0632 -0.768,1.14135 0.0142,0.7313 0.14494,2.16685 0.29062,3.19012 0.18464,1.29702 0.13759,1.9661 -0.15534,2.20921 -0.66357,0.55072 -1.17815,-0.37093 -1.39993,-2.50736 -0.36233,-3.49053 -0.65882,-4.37464 -1.50819,-4.49729 -0.65,-0.0939 -0.78069,0.0561 -0.78069,0.89602 0,0.55482 0.24777,1.95492 0.55059,3.11134 0.30283,1.15643 0.48378,2.45877 0.40213,2.89411 -0.0816,0.43533 0.0278,0.93128 0.24316,1.10212 0.21539,0.17083 3.9635,0.40413 8.32912,0.51844 4.36563,0.11431 9.60438,0.42989 11.64167,0.70128 2.03729,0.27139 5.68854,0.51914 8.11389,0.55054 5.05342,0.0654 8.09615,0.28467 11.1125,0.80071 1.16417,0.19916 4.02167,0.42284 6.35,0.49705 2.32833,0.0742 5.02708,0.31984 5.99722,0.54582 0.97014,0.22598 3.24158,0.47942 5.04763,0.5632 2.49997,0.11596 3.33245,0.27926 3.48783,0.68415 0.35285,0.91951 -0.68704,1.50505 -4.31355,2.42885 -2.85048,0.72611 -3.68822,1.09375 -4.42399,1.94145 -0.98496,1.1348 -1.93751,1.31727 -2.96281,0.56756 -0.92078,-0.67329 -0.4968,-1.46846 1.39093,-2.60869 0.87867,-0.53073 1.59757,-1.08518 1.59757,-1.23212 0,-0.37023 -2.38432,-0.33751 -2.61509,0.0359 -0.10301,0.16667 -1.07659,0.40756 -2.16351,0.53531 -2.29161,0.26933 -4.24045,1.01143 -5.32034,2.02594 -0.52527,0.49346 -1.12595,0.67892 -1.94509,0.60052 -1.78418,-0.17076 -1.58418,-1.25341 0.4812,-2.60486 1.95472,-1.27904 1.73625,-1.91829 -0.65559,-1.91829 -0.82169,0 -1.92215,-0.16279 -2.44548,-0.36176 -1.32649,-0.50433 -2.26943,-0.12707 -2.26943,0.90798 0,0.95996 -1.16692,1.44399 -2.60878,1.0821 -1.08227,-0.27162 -3.09804,0.42553 -7.18278,2.48417 -1.79585,0.90508 -3.35816,1.55261 -3.4718,1.43897 -0.95634,-0.95634 3.44394,-3.79526 7.7953,-5.02929 2.97057,-0.84244 3.16711,-1.21434 0.68792,-1.30163 -4.81938,-0.16969 -8.15166,0.52577 -12.05932,2.51682 -1.55184,0.79071 -2.97695,1.43764 -3.16691,1.43764 -0.18997,0 -0.63272,0.3175 -0.98391,0.70556 -0.83319,0.92067 -2.29305,0.94816 -2.29305,0.0432 0,-0.81988 0.27374,-1.03946 3.34762,-2.68523 1.35613,-0.72607 2.84321,-1.6171 3.30463,-1.98005 0.78541,-0.6178 0.79691,-0.67614 0.18016,-0.91406 -1.09753,-0.42338 -2.98992,-0.25622 -5.77408,0.51004 -2.8848,0.79397 -8.31082,3.05461 -9.2,3.83301 -0.30632,0.26815 -0.86988,0.48754 -1.25236,0.48754 -0.85338,0 -1.54209,0.64487 -1.54209,1.44393 0,0.77866 0.70874,1.02572 2.93928,1.02462 1.00277,-3.6e-4 3.72823,0.23014 6.05656,0.51253 2.32833,0.28239 7.40833,0.76263 11.28889,1.06721 3.88055,0.30457 8.1668,0.69341 9.525,0.86408 4.00555,0.50335 8.18332,0.26077 10.5711,-0.6138 2.23583,-0.81891 3.89309,-0.98832 4.23628,-0.43303 0.11481,0.18576 -0.28745,0.59434 -0.89391,0.90795 -0.60646,0.31362 -1.00644,0.66642 -0.88886,0.784 0.56781,0.56781 4.72175,0.26649 6.78173,-0.49193 1.19209,-0.4389 2.9753,-0.90516 3.96269,-1.03614 1.49029,-0.19769 1.8335,-0.13845 2.02047,0.3488 0.12993,0.33859 -0.0371,0.87682 -0.39474,1.27202 -0.79774,0.8815 -0.59104,0.95655 3.70941,1.34691 4.00288,0.36335 5.86821,0.19913 7.05555,-0.62118 z m -35.27778,-3.03565 c 0,-0.69709 0.82555,-1.00578 1.94107,-0.7258 1.47272,0.36963 1.09749,1.26604 -0.52996,1.26604 -1.03199,0 -1.41111,-0.14515 -1.41111,-0.54024 z m 56.97361,-24.85976 c -0.38805,-0.16676 -2.17897,-0.31435 -3.97982,-0.32798 -2.64106,-0.02 -3.31556,-0.13242 -3.48782,-0.58132 -0.11746,-0.30609 0.0226,-0.79274 0.31136,-1.08144 0.6994,-0.6994 10.63041,-0.81544 11.89438,-0.13899 0.80331,0.42992 0.77291,0.46795 -1.16835,1.46195 -2.11604,1.0835 -2.45483,1.14688 -3.56975,0.66778 z m 10.99483,-9.32282 c -0.20039,-0.52222 0.68787,-1.51347 1.04035,-1.16098 0.27227,0.27226 -0.19273,1.66435 -0.55593,1.66435 -0.16019,0 -0.37818,-0.22652 -0.48442,-0.50337 z m -17.60941,-1.8146 c -0.99545,-1.01231 1.10744,-1.76829 5.74855,-2.06656 4.09345,-0.26308 5.76351,0.074 5.56055,1.12237 -0.093,0.48041 -0.50711,0.62636 -1.87775,0.6618 -0.96714,0.025 -3.42531,0.15932 -5.4626,0.29846 -2.03729,0.13915 -3.82323,0.13191 -3.96875,-0.0161 z m -51.77014,-9.67647 c 0,-0.19403 0.15875,-0.35278 0.35278,-0.35278 0.19403,0 0.35278,0.15875 0.35278,0.35278 0,0.19403 -0.15875,0.35278 -0.35278,0.35278 -0.19403,0 -0.35278,-0.15875 -0.35278,-0.35278 z m -3.35139,-0.70556 c 0.11992,-0.19403 0.36741,-0.35278 0.54999,-0.35278 0.18258,0 0.33196,0.15875 0.33196,0.35278 0,0.19403 -0.2475,0.35278 -0.54999,0.35278 -0.30249,0 -0.45187,-0.15875 -0.33196,-0.35278 z m 73.20139,-0.35278 c 0,-0.19402 0.14938,-0.35277 0.33196,-0.35277 0.18258,0 0.43007,0.15875 0.54999,0.35277 0.11991,0.19403 -0.0295,0.35278 -0.33196,0.35278 -0.30249,0 -0.54999,-0.15875 -0.54999,-0.35278 z m -100.66338,44.8632 c -0.32112,-0.35482 -0.58384,-0.81774 -0.58384,-1.0287 0,-0.21095 2.3016,-1.54783 5.11467,-2.97083 2.81307,-1.423 5.11494,-2.70634 5.11528,-2.85186 7e-4,-0.36569 -0.95762,-0.32538 -5.64384,0.23736 -2.23132,0.26794 -4.8507,0.75748 -5.82084,1.08786 -2.7169,0.92524 -6.69258,2.91097 -7.40563,3.69889 -0.84067,0.92893 -1.94298,0.93187 -1.94298,0.005 0,-0.88381 1.83424,-2.21838 5.5789,-4.05915 1.57883,-0.77612 2.87446,-1.50928 2.87919,-1.62925 0.005,-0.11997 -0.66464,-0.30843 -1.48746,-0.41879 -1.04021,-0.13953 -1.66672,-0.0462 -2.05625,0.30633 -0.31877,0.28849 -1.27041,0.50698 -2.20813,0.50698 -1.82907,0 -2.87651,0.73749 -3.26911,2.30173 -0.30773,1.22609 -1.37166,1.02264 -1.39355,-0.26647 -0.0224,-1.3206 -0.30979,-1.48555 -1.45875,-0.83732 -0.547,0.30861 -1.41447,0.7107 -1.9277,0.89352 -0.66321,0.23624 -1.07778,0.76632 -1.43316,1.83245 -0.5695,1.7085 -1.15486,2.10568 -1.4485,0.98281 -0.15888,-0.60756 -0.36943,-0.71747 -1.01505,-0.52986 -2.19375,0.63749 -3.10765,0.66212 -3.10765,0.0838 0,-0.3249 0.56408,-0.80628 1.31001,-1.11795 1.981,-0.82771 2.57055,-1.51607 2.57055,-3.00137 0,-0.73695 0.23221,-1.50596 0.52916,-1.75241 0.94469,-0.78402 0.56668,-1.05833 -1.45837,-1.05833 -2.49419,0 -4.35157,0.5466 -5.64764,1.66202 -1.18509,1.01992 -2.83947,2.34217 -3.82541,3.05745 -0.68582,0.49755 -0.68669,0.52415 -0.0402,1.23849 1.34516,1.48639 4.48593,2.24355 11.14802,2.6875 3.97655,0.265 6.1215,0.51469 7.84142,0.91283 0.9173,0.21234 2.5048,0.32251 3.52778,0.24483 1.02298,-0.0777 2.33622,-0.0321 2.9183,0.10136 0.58209,0.13343 1.99575,0.26138 3.14149,0.28434 1.99683,0.04 2.05895,0.015 1.4993,-0.6034 z m 91.33361,-1.38333 c 1.51291,-1.20716 1.5466,-1.65364 0.10298,-1.36492 -1.39465,0.27893 -2.0621,0.82034 -2.0621,1.6727 0,0.91381 0.53308,0.83006 1.95912,-0.30778 z m -3.40871,-2.54357 c 2.55717,-0.93469 2.59787,-1.0724 0.31686,-1.0724 -1.96009,0 -3.07196,0.60124 -2.58098,1.39566 0.28168,0.45576 0.0373,0.49065 2.26412,-0.32326 z m 6.54191,-0.35812 c 1.45867,-0.55458 1.04585,-0.98532 -0.94718,-0.98829 -2.57673,-0.004 -3.23568,0.19871 -2.7094,0.83284 0.47857,0.57665 2.34055,0.65581 3.65658,0.15545 z m 7.60768,-1.08788 c 0,-0.18258 -0.23314,-0.33196 -0.51809,-0.33196 -0.31471,0 -0.43869,0.20694 -0.31581,0.52714 0.20824,0.54267 0.8339,0.39623 0.8339,-0.19518 z m -131.10485,-2.18404 c 3.36187,-2.87654 3.26133,-2.7336 1.92519,-2.7371 -0.64445,-0.002 -1.96548,-0.094 -2.93562,-0.20506 -1.68302,-0.19272 -1.79077,-0.15332 -2.35021,0.85952 -0.4767,0.86304 -0.51814,1.33011 -0.22167,2.49811 0.22229,0.87575 0.57021,1.43661 0.8912,1.43661 0.2896,0 1.5006,-0.83344 2.69111,-1.85208 z m 13.76139,0.0717 c 0.89779,-0.39714 1.63235,-0.78591 1.63235,-0.86392 0,-0.078 -0.87523,-0.41775 -1.94494,-0.75495 -1.5007,-0.47305 -2.04057,-0.51745 -2.36361,-0.19441 -0.32305,0.32304 -0.32198,0.41867 0.005,0.41867 0.23519,0 0.42333,0.47037 0.42333,1.05833 0,1.25525 0.12757,1.27433 2.24821,0.33628 z m 14.53846,-3.0703 c -0.1115,-0.53358 -0.29206,-1.75181 -0.40123,-2.70719 -0.10918,-0.95537 -0.34749,-2.01543 -0.52959,-2.35569 -0.1821,-0.34026 -0.23615,-0.86607 -0.12011,-1.16847 0.32305,-0.84185 -0.88337,-1.1282 -6.72413,-1.59603 -2.90175,-0.23243 -5.36237,-0.47495 -5.46806,-0.53894 -0.35936,-0.21759 -8.52745,-1.31946 -8.67646,-1.17045 -0.0815,0.0815 0.0616,1.56614 0.31798,3.29911 0.51686,3.49304 0.45118,4.0328 -0.4907,4.0328 -0.78842,0 -0.94661,-0.50638 -1.21224,-3.88056 -0.34888,-4.43174 -0.72733,-5.34102 -1.91696,-4.60579 -0.33677,0.20814 -0.27734,1.08535 0.26666,3.93611 0.99102,5.19334 1.19038,5.61948 2.60337,5.56477 0.63529,-0.0246 1.53939,0.0507 2.0091,0.16728 0.46971,0.1166 4.04158,0.46266 7.9375,0.76903 3.89592,0.30636 7.95661,0.68733 9.02376,0.84658 3.50461,0.523 3.61036,0.50447 3.38111,-0.59256 z m -25.60611,-2.53682 c 0,-0.37661 -0.13459,-0.76791 -0.29908,-0.86958 -0.16449,-0.10166 -0.40266,-1.65884 -0.52927,-3.4604 -0.28693,-4.08274 -0.43102,-4.22005 -4.28379,-4.08221 l -2.82536,0.10109 0.12181,1.22906 c 0.067,0.67598 0.33848,1.64804 0.60329,2.16014 0.26482,0.51208 0.39226,1.02028 0.28322,1.12933 -0.10905,0.10904 0.0689,1.00249 0.39534,1.98544 0.61125,1.84029 0.7705,1.95309 3.18245,2.25408 2.73932,0.34184 3.35139,0.26021 3.35139,-0.44695 z m 129.23991,-0.70617 c 0.48109,-0.18291 0.97938,-0.66234 1.10731,-1.06539 0.12792,-0.40305 0.77093,-1.4381 1.42891,-2.3001 0.65798,-0.862 1.08284,-1.62903 0.94413,-1.70451 -0.13871,-0.0755 -1.29655,-0.0646 -2.57297,0.0241 l -2.32077,0.16132 -0.85423,1.63845 c -0.46983,0.90114 -1.05267,1.76539 -1.2952,1.92056 -0.24254,0.15516 -0.44098,0.59172 -0.44098,0.97014 0,0.57875 0.24848,0.68802 1.56454,0.68802 0.86049,0 1.95816,-0.14965 2.43926,-0.33257 z m -105.16283,-6.25107 c -0.24253,-0.0979 -0.63941,-0.0979 -0.88194,0 -0.24254,0.0979 -0.0441,0.17794 0.44097,0.17794 0.48507,0 0.68351,-0.0801 0.44097,-0.17794 z m -6.17319,-0.55884 c -0.0806,-0.24183 -0.76852,-0.56678 -1.5287,-0.72211 -0.76017,-0.15533 -1.82074,-0.37266 -2.35683,-0.48296 -0.79534,-0.16364 -0.93444,-0.0957 -0.756,0.36934 0.14082,0.36697 0.63746,0.56988 1.39484,0.56988 0.64689,0 1.27427,0.15875 1.39419,0.35277 0.32407,0.52436 2.02959,0.44433 1.8525,-0.0869 z m -6.615,-1.50058 c -0.4616,-0.55619 -2.11667,-0.74009 -2.11667,-0.23518 0,0.53368 0.45663,0.76435 1.5131,0.76435 0.88688,0 0.97709,-0.0791 0.60357,-0.52917 z m 28.3409,0.26459 c 0.0882,-0.14552 -0.024,-1.85209 -0.24917,-3.79236 l -0.40949,-3.52778 -3.69876,-0.25932 c -2.03432,-0.14263 -4.29535,-0.4272 -5.02451,-0.63237 -0.93237,-0.26236 -1.9375,-0.26213 -3.38743,7e-4 -1.7189,0.3117 -5.80098,0.27328 -10.98543,-0.10337 -0.82421,-0.0599 -0.87323,0.0283 -0.7488,1.34704 0.33368,3.53649 0.23401,4.91786 -0.36346,5.03727 -0.44152,0.0883 -0.64565,-0.25218 -0.8407,-1.40203 -0.30478,-1.79676 -0.46301,-3.27199 -0.49396,-4.60538 -0.0164,-0.70875 -0.20246,-0.97014 -0.69034,-0.97014 -0.3673,0 -0.77082,0.26843 -0.89672,0.59652 -0.31216,0.81349 0.49366,5.81805 1.02973,6.39513 0.49679,0.5348 4.59914,0.97727 13.58758,1.46553 3.39549,0.18445 7.04674,0.39142 8.11389,0.45994 3.91427,0.25133 4.90065,0.24948 5.05757,-0.009 z m -10.54462,-2.94116 c -0.36355,-0.58823 0.4541,-1.26277 0.94076,-0.77611 0.40708,0.40708 0.1523,1.15963 -0.3926,1.15963 -0.17112,0 -0.4178,-0.17259 -0.54816,-0.38352 z m 0.25109,-3.14426 c 0,-0.48507 0.0801,-0.68351 0.17793,-0.44097 0.0979,0.24253 0.0979,0.63941 0,0.88194 -0.0979,0.24254 -0.17793,0.0441 -0.17793,-0.44097 z m -22.47473,5.33445 c -0.48119,-0.44507 -2.98098,-0.83949 -2.98098,-0.47034 0,0.58542 0.47289,0.78033 1.89325,0.78033 0.83672,0 1.28481,-0.12769 1.08773,-0.30999 z m 4.13625,-2.33165 c -0.0631,-0.57978 -0.25121,-1.21861 -0.41805,-1.41964 -0.16683,-0.20102 -0.38099,-0.99665 -0.4759,-1.76808 -0.22755,-1.84941 -0.53806,-2.59066 -1.24335,-2.96812 -0.97677,-0.52275 -9.34418,-0.87108 -10.17996,-0.42378 -0.55636,0.29775 -1.01779,0.27391 -1.9118,-0.0988 -1.81552,-0.75688 -5.1381,-1.27687 -6.03024,-0.94375 -0.43595,0.16278 -1.14422,0.16355 -1.57391,0.002 -1.17159,-0.44129 -1.24909,0.0888 -0.40074,2.741 0.98075,3.06609 1.42501,3.56159 3.42749,3.82273 0.89929,0.11727 2.01244,0.36818 2.47368,0.55757 0.46125,0.18939 3.41728,0.50554 6.56897,0.70255 3.15169,0.19701 6.18744,0.49869 6.7461,0.6704 0.55867,0.17171 1.49201,0.28253 2.0741,0.24628 0.95379,-0.0594 1.047,-0.17005 0.94361,-1.12007 z m 38.49145,-6.51282 c 0.25285,-0.0162 0.12844,-1.98412 -0.30654,-4.84857 -0.10845,-0.71416 -0.42492,-1.20721 -0.86439,-1.34669 -0.8666,-0.27505 -2.11721,0.0976 -2.00905,0.59865 0.0446,0.20646 -0.14271,0.45657 -0.41616,0.55581 -0.34162,0.12397 -0.42923,0.003 -0.27999,-0.38558 0.11946,-0.3113 0.0325,-0.68018 -0.19334,-0.81973 -0.2258,-0.13955 -2.6398,-0.30538 -5.36445,-0.36852 -2.72466,-0.0631 -6.54782,-0.20929 -8.49593,-0.32479 l -3.542,-0.21001 -0.41344,0.9074 c -0.2274,0.49908 -0.27941,0.99024 -0.11559,1.09149 0.16381,0.10125 0.40859,1.21816 0.54394,2.48204 l 0.24609,2.29796 4.11706,0.0352 c 2.26438,0.0193 4.51393,0.16032 4.999,0.3133 0.65401,0.20626 8.98694,0.22146 12.09479,0.022 z m -8.21423,-3.89831 c 0,-0.19403 0.15875,-0.35278 0.35278,-0.35278 0.19403,0 0.35278,0.15875 0.35278,0.35278 0,0.19402 -0.15875,0.35277 -0.35278,0.35277 -0.19403,0 -0.35278,-0.15875 -0.35278,-0.35277 z m 11.72056,3.39034 c 0.0886,-0.46365 0.0103,-1.8924 -0.17417,-3.175 -0.28023,-1.94894 -0.44669,-2.33201 -1.01333,-2.33201 -0.88797,0 -1.32423,1.24396 -0.97668,2.78495 0.15239,0.67571 0.26825,1.31771 0.25746,1.42667 -0.14783,1.4929 0.12527,2.13838 0.90476,2.13838 0.60636,0 0.88575,-0.23506 1.00196,-0.84299 z m -26.67888,-0.13255 c 0.28054,-0.18763 0.26954,-1.06877 -0.0399,-3.19181 -0.4362,-2.99329 -0.84451,-3.87341 -1.58472,-3.41593 -0.2991,0.18485 -0.34649,1.06657 -0.16803,3.12662 0.28973,3.34445 0.72708,4.19377 1.7926,3.48112 z m -3.65675,-2.37585 c -0.0518,-1.16417 -0.22149,-2.59292 -0.37702,-3.175 l -0.28277,-1.05833 -4.38549,-0.24938 c -2.41201,-0.13716 -5.65548,-0.40895 -7.20771,-0.60398 -7.97476,-1.002 -9.12726,-1.0966 -9.44828,-0.77558 -0.21147,0.21147 -0.16711,1.46342 0.12031,3.39536 0.39733,2.67066 0.56003,3.10018 1.27763,3.37302 0.45228,0.17195 3.45436,0.41071 6.67128,0.53056 3.21693,0.11986 6.58949,0.34611 7.49457,0.50278 0.90508,0.15666 2.67748,0.26063 3.93866,0.23103 l 2.29306,-0.0538 z m -22.9385,0.4327 c 0.10308,-0.76143 -0.9124,-6.48993 -1.21799,-6.8709 -0.25383,-0.31644 -1.8608,-0.44534 -5.69039,-0.45645 -3.7242,-0.0108 -5.76303,-0.16909 -6.74777,-0.52386 -0.77611,-0.2796 -1.46882,-0.51076 -1.53935,-0.51368 -0.26882,-0.0112 0.25647,2.01317 1.0056,3.87525 0.42933,1.06715 0.8591,2.27905 0.95506,2.6931 0.1426,0.61534 0.50661,0.78688 1.99324,0.93926 1.00033,0.10254 2.81401,0.36303 4.0304,0.57888 2.52113,0.44737 3.85573,0.066 3.41281,-0.9751 -0.37376,-0.87859 -0.71171,-3.30468 -0.58177,-4.17646 0.12962,-0.86959 1.12626,-1.40197 1.49813,-0.80027 0.13596,0.21998 0.26759,1.21755 0.29251,2.21681 0.064,2.56797 0.29994,3.51432 1.00506,4.03189 0.63731,0.46779 1.52002,0.45751 1.58446,-0.0185 z m 139.97857,-5.57539 c 1.06716,-0.21285 2.26007,-0.44616 2.65093,-0.51844 0.4094,-0.0757 1.23188,-0.98447 1.94027,-2.1438 2.0365,-3.33282 2.03799,-3.30758 -0.1961,-3.30758 h -1.93218 l -1.09519,1.77991 c -0.60235,0.97896 -1.27557,1.71809 -1.49604,1.64251 -0.22047,-0.0756 -0.40085,-0.83685 -0.40085,-1.69172 v -1.55431 l -1.68506,-0.32546 c -2.65345,-0.5125 -3.89201,0.24816 -4.65352,2.85796 -0.32957,1.12949 -0.74477,2.32927 -0.92268,2.66618 -0.17791,0.33692 -0.32347,0.68247 -0.32347,0.76789 0,0.54398 5.05995,0.43601 8.11389,-0.17314 z m -102.11392,-1.05559 c 0.25666,-0.41531 -0.42455,-2.99775 -0.98919,-3.74994 -0.17472,-0.23276 -0.26519,-0.94714 -0.20104,-1.5875 0.11506,-1.14841 0.0926,-1.16789 -1.64724,-1.428 -4.32574,-0.64672 -5.02977,-0.68922 -5.25951,-0.31749 -0.25586,0.41399 -2.22875,0.16604 -2.90883,-0.36558 -0.44718,-0.34956 -2.15579,-0.0422 -2.86258,0.51494 -0.31379,0.24735 -0.6614,0.15933 -1.16283,-0.29446 -0.39338,-0.356 -1.30321,-0.67047 -2.02185,-0.69881 -0.71864,-0.0283 -2.17975,-0.16816 -3.2469,-0.31071 -1.16284,-0.15533 -2.3264,-0.11135 -2.90395,0.10977 -0.94574,0.36208 -0.96037,0.41344 -0.78644,2.76139 0.33303,4.49589 -0.0257,4.12976 4.55976,4.65382 8.01708,0.91625 19.05455,1.32102 19.4306,0.71257 z m 3.74606,-0.50451 c -0.0656,-0.38805 -0.17601,-1.80209 -0.24536,-3.1423 -0.0694,-1.3402 -0.2972,-2.54248 -0.50632,-2.67172 -0.20911,-0.12924 -0.849,-0.16618 -1.42197,-0.0821 -0.83662,0.12278 -0.9811,0.26683 -0.73367,0.73144 0.16945,0.3182 0.42335,1.6898 0.56423,3.04799 0.31042,2.99295 0.34886,3.0668 1.52552,2.93064 0.71568,-0.0828 0.90867,-0.27496 0.81757,-0.81397 z m -32.86547,-0.86753 c 0,-0.97944 -0.79304,-5.93916 -1.05258,-6.58295 -0.31137,-0.77231 -0.4642,-0.80605 -6.43676,-1.421 -1.93846,-0.19959 -2.03567,-0.17026 -2.37252,0.71571 -0.45676,1.20138 -0.99799,1.17937 -1.13902,-0.0463 -0.12395,-1.07724 -1.35559,-1.51803 -2.22516,-0.79635 -0.35496,0.29458 -0.68151,0.30035 -1.20306,0.0212 -0.39372,-0.21071 -1.79294,-0.45789 -3.10936,-0.54928 -1.31642,-0.0914 -3.88648,-0.32878 -5.71126,-0.52753 -1.82477,-0.19875 -3.38966,-0.28947 -3.47752,-0.2016 -0.22052,0.22052 0.60819,3.65109 1.22507,5.07143 0.27849,0.64119 0.85196,1.30175 1.27439,1.46791 0.77575,0.30515 5.25813,1.03563 6.23611,1.01629 0.29104,-0.006 1.28613,0.10542 2.21131,0.24708 1.34755,0.20631 1.81563,0.13674 2.35318,-0.34973 0.63771,-0.57713 0.69055,-0.5708 1.06429,0.12755 0.31201,0.583 0.73252,0.73482 2.03531,0.73482 0.90313,0 2.52473,0.15588 3.60356,0.34639 2.37466,0.41935 5.67841,0.95483 6.28304,1.01838 0.24254,0.0255 0.44098,-0.10592 0.44098,-0.29202 z m 3.73505,-0.63177 c -0.11086,-0.53358 -0.2808,-2.08139 -0.37764,-3.43959 -0.16644,-2.33409 -0.66857,-3.35139 -1.65423,-3.35139 -0.49945,0 -0.74286,1.78783 -0.52596,3.86305 0.31255,2.9903 0.7412,3.89806 1.84068,3.89806 0.81591,0 0.89616,-0.10856 0.71715,-0.97013 z m 104.9205,-1.85209 c 0,-0.19403 -0.23812,-0.35278 -0.52916,-0.35278 -0.29104,0 -0.52917,0.15875 -0.52917,0.35278 0,0.19403 0.23813,0.35278 0.52917,0.35278 0.29104,0 0.52916,-0.15875 0.52916,-0.35278 z m -68.61227,-3.88541 c 0.28923,-0.46799 -0.17597,-5.76866 -0.56099,-6.39223 -0.18738,-0.30346 -1.31555,-0.56763 -3.04484,-0.71298 -1.51095,-0.12699 -5.68405,-0.47742 -9.27356,-0.77874 -3.58952,-0.30131 -7.51858,-0.65246 -8.73126,-0.78033 l -2.20486,-0.2325 v 1.05507 c 0,0.5803 0.22263,1.68606 0.49473,2.45727 0.54341,1.54022 0.29035,2.35071 -0.67469,2.16081 -0.63333,-0.12462 -1.86581,-3.20131 -1.91337,-4.77639 -0.0312,-1.03455 -0.60156,-1.33958 -0.83507,-0.44663 -0.26169,1.00071 0.11901,5.36972 0.51024,5.85552 0.45717,0.56769 2.22998,0.75803 11.06122,1.1876 6.38256,0.31046 11.10789,0.87254 13.40556,1.5946 0.75461,0.23714 1.55578,0.15051 1.76689,-0.19107 z m 3.85039,-1.22987 c -0.14008,-0.58208 -0.35002,-2.01083 -0.46654,-3.175 -0.18515,-1.84988 -0.3119,-2.13087 -1.00561,-2.22939 -0.70009,-0.0994 -0.79736,0.0462 -0.82435,1.23472 -0.0168,0.7411 -0.0852,1.8819 -0.15202,2.53511 -0.19949,1.95141 0.32496,2.85555 1.60557,2.76797 1.03142,-0.0705 1.08226,-0.13891 0.84295,-1.13341 z m -32.55167,-4.61318 c -0.0678,-1.73136 -0.23855,-3.27105 -0.37944,-3.42154 -0.14089,-0.15048 -1.7523,-0.35836 -3.58089,-0.46194 -1.8286,-0.10359 -4.75348,-0.3509 -6.49973,-0.54959 -1.74625,-0.19868 -4.36563,-0.41104 -5.82083,-0.47191 -3.7994,-0.15891 -6.78391,-0.44727 -7.49653,-0.72428 -0.47525,-0.18474 -0.61736,-0.0587 -0.61736,0.54741 0,0.69471 0.13053,0.76129 1.10883,0.56563 0.60987,-0.12198 1.28455,-0.0824 1.49931,0.088 0.63556,0.50415 2.5832,0.79393 7.44602,1.10785 5.17486,0.33406 6.39843,0.56488 6.66409,1.25719 0.17701,0.46127 -0.63228,1.57031 -1.13303,1.5527 -0.13166,-0.005 -0.87439,-0.16248 -1.6505,-0.35078 -1.86672,-0.4529 -10.7498,-0.83164 -10.79525,-0.46026 -0.29181,2.38397 -0.27408,2.40696 1.85592,2.40696 2.08855,0 2.91812,0.35169 2.06834,0.87688 -0.8304,0.51322 1.18387,0.82798 3.99938,0.62495 1.38536,-0.0999 2.83268,-0.0671 3.21627,0.0729 0.38358,0.14 1.31747,0.11523 2.07529,-0.055 1.05358,-0.23673 1.51313,-0.18718 1.95259,0.21053 0.60942,0.55151 3.84878,0.87718 5.32885,0.53574 0.87161,-0.20107 0.8805,-0.24035 0.75867,-3.35139 z m -23.49357,1.13422 c 0.29376,-1.17044 0.0507,-3.23604 -0.37205,-3.16219 -0.52915,0.0924 -1.00191,2.05817 -0.74304,3.0896 0.28449,1.13351 0.83975,1.16966 1.11509,0.0726 z m -3.36266,-0.24014 c 0.21207,-0.39627 0.33672,-1.30908 0.27699,-2.02847 l -0.1086,-1.30798 -3.70417,-0.26704 c -5.62726,-0.40568 -8.47782,-0.47326 -8.90207,-0.21105 -0.2635,0.16284 -0.28246,0.71783 -0.0604,1.76881 0.30413,1.43964 0.39748,1.5342 1.55622,1.57657 0.67797,0.0248 2.65943,0.22921 4.40324,0.45428 2.17286,0.28045 3.20896,0.29402 3.29259,0.0431 0.18746,-0.5624 1.72555,-0.43408 1.9547,0.16308 0.2842,0.74062 0.83655,0.65879 1.29153,-0.19133 z m 77.77951,-5.33411 c 0,-1.48676 0.11906,-2.82291 0.26458,-2.96921 0.46625,-0.46875 0.28554,-0.86891 -0.52917,-1.17176 -1.27833,-0.47518 -1.59206,-0.1271 -1.49716,1.66106 0.0483,0.91044 0.1073,2.49982 0.13105,3.53196 0.0399,1.73406 0.1035,1.86806 0.83695,1.76389 0.74428,-0.1057 0.79375,-0.2812 0.79375,-2.81594 z m -3.82095,1.30498 c -0.097,-0.58916 -0.29408,-1.77576 -0.43793,-2.63688 -0.14385,-0.86112 -0.47209,-1.9715 -0.72943,-2.46751 l -0.46787,-0.90183 -6.09136,-0.0607 c -7.77625,-0.0775 -12.0457,-0.33072 -12.85757,-0.76271 -0.35317,-0.18791 -1.59462,-0.3979 -2.75878,-0.46663 l -2.11667,-0.12497 -0.015,2.20225 c -0.0156,2.28564 -0.43613,3.15382 -1.35657,2.80061 -0.39822,-0.15281 -0.56396,-0.86865 -0.64107,-2.7688 -0.10332,-2.54585 -0.11139,-2.56483 -1.22675,-2.88358 -0.61751,-0.17647 -1.52568,-0.21972 -2.01816,-0.0961 -0.77619,0.19481 -0.85265,0.33725 -0.57419,1.06965 0.17668,0.4647 0.43037,1.80955 0.56376,2.98854 0.13338,1.179 0.46597,2.32909 0.73909,2.55575 0.58805,0.48803 4.10054,0.85879 12.29003,1.29725 10.17983,0.54502 10.26786,0.54681 11.69848,0.23701 0.88117,-0.19082 1.18857,-0.10452 1.46505,0.41131 0.28118,0.52459 0.77819,0.65533 2.53063,0.66568 l 2.18072,0.0129 -0.17638,-1.07121 z m 86.97065,-0.90247 c 1.88603,-2.10574 2.06704,-2.56528 0.8996,-2.28398 -0.43656,0.1052 -2.38125,0.25548 -4.32152,0.33395 -4.46528,0.1806 -4.21479,0.15354 -3.94242,0.42591 0.12767,0.12767 0.0902,0.40549 -0.0833,0.61736 -0.3036,0.37074 -0.50449,1.62185 -0.42301,2.63434 0.031,0.38504 0.67267,0.45195 3.1082,0.32412 l 3.06915,-0.16109 z m -160.33667,-1.2624 c 0.18693,-0.56427 -7.1724,-1.2082 -10.91928,-0.95542 -2.98611,0.20146 -3.93129,0.6068 -2.29306,0.98337 2.32048,0.5334 13.03389,0.51074 13.21234,-0.0279 z m 40.78486,0.29991 c 0.0836,-0.14552 -0.0261,-1.6099 -0.24376,-3.25418 l -0.3958,-2.9896 -6.52639,-0.0478 c -3.58952,-0.0263 -7.16139,-0.2202 -7.9375,-0.43097 -1.34025,-0.36396 -5.51925,-0.29651 -6.15989,0.0994 -0.16515,0.10207 -0.21711,0.50356 -0.11548,0.89221 0.10164,0.38865 -7e-4,1.44391 -0.22775,2.34501 -0.2269,0.90111 -0.28528,1.76068 -0.12971,1.91016 0.25515,0.24518 6.12983,0.74129 16.33422,1.37942 2.03729,0.12739 4.05198,0.26071 4.47709,0.29624 0.42511,0.0355 0.84135,-0.0545 0.92497,-0.19997 z m -27.93804,-2.11667 c 0.0513,-0.75702 -0.012,-1.44559 -0.22208,-2.41859 -0.15261,-0.70675 -0.44826,-0.75521 -6.07548,-0.99595 -3.25329,-0.13918 -7.18508,-0.46927 -8.7373,-0.73355 -1.55222,-0.26427 -4.11949,-0.58957 -5.70504,-0.72289 l -2.88282,-0.24239 -0.11579,0.98608 c -0.15191,1.29367 -0.88361,1.50054 -1.38845,0.39254 -0.44096,-0.96781 -1.22358,-1.28022 -3.22526,-1.28752 -1.51359,-0.005 -1.51493,-0.002 -0.75972,1.97547 0.54659,1.43121 0.62201,1.48267 2.55764,1.74498 1.09695,0.14866 2.70882,0.29936 3.58195,0.33489 2.51265,0.10226 14.65844,0.90086 18.34444,1.20616 1.84326,0.15268 3.6292,0.30021 3.96875,0.32786 0.35856,0.0292 0.63488,-0.20852 0.65916,-0.56709 z m 3.83875,-0.0882 c 0,-0.38806 0.15875,-0.70556 0.35278,-0.70556 0.54034,0 0.4191,-1.62246 -0.15697,-2.10055 -0.28036,-0.23268 -0.87567,-0.37118 -1.32292,-0.30778 -0.66427,0.0942 -0.83362,0.36429 -0.92486,1.47529 -0.1507,1.83473 0.10116,2.34415 1.15896,2.34415 0.65783,0 0.89301,-0.18581 0.89301,-0.70555 z m 140.28792,-1.90717 c 1.51454,-0.0979 3.42401,-0.51635 4.7625,-1.04356 1.22887,-0.48404 2.63119,-0.93095 3.11626,-0.99314 0.76685,-0.0983 0.87327,0.0135 0.81553,0.85707 -0.0365,0.53358 0.10348,0.97014 0.31113,0.97014 0.65976,0 2.76619,-1.45859 2.56846,-1.77852 -0.10441,-0.16893 0.19645,-0.56025 0.66857,-0.8696 1.134,-0.74302 7.95573,-8.24543 8.89943,-9.78741 0.90735,-1.48261 1.40939,-4.14503 0.7816,-4.14503 -0.3325,0 -0.33343,-0.0941 -0.004,-0.42333 0.23284,-0.23283 0.42254,-0.82815 0.42158,-1.32292 l -0.002,-0.89958 -0.85102,1.05833 c -0.46806,0.58209 -0.93251,1.45521 -1.03212,1.94028 -0.24411,1.18883 -2.59758,3.88056 -3.3929,3.88056 -1.19921,0 -5.22213,2.11908 -5.41371,2.85168 -0.16264,0.62195 -0.46216,0.6977 -2.59461,0.65623 -1.32591,-0.0258 -3.35929,0.20687 -4.51862,0.51703 -1.15933,0.31016 -3.39731,0.75035 -4.97329,0.97822 -3.20563,0.46348 -6.25708,0.25518 -19.20078,-1.31068 -0.6791,-0.0822 -2.10785,-0.2393 -3.175,-0.3492 -2.22819,-0.22948 -4.43737,-0.61721 -9.17222,-1.6098 -1.84327,-0.38642 -6.05014,-1.24529 -9.34862,-1.9086 -3.29847,-0.66331 -8.14034,-1.67536 -10.75972,-2.249 -5.1609,-1.13024 -8.79324,-1.76054 -11.28881,-1.95891 -3.02753,-0.24066 -10.43167,-1.30539 -15.34584,-2.20678 -7.32598,-1.34377 -18.21965,-2.19068 -20.40294,-1.58619 -0.93376,0.25853 -1.64422,0.26222 -2.29306,0.0119 -1.52195,-0.58716 -15.95799,-1.27018 -19.10817,-0.90409 -0.87312,0.10147 -3.4925,0.36518 -5.82083,0.58602 -2.32833,0.22084 -4.49542,0.47913 -4.81576,0.57397 -0.32033,0.0948 -3.53502,0.18345 -7.14375,0.1969 -3.60872,0.0134 -6.56132,0.14711 -6.56132,0.29705 0,0.14993 0.35719,0.51538 0.79375,0.8121 0.72076,0.48988 0.73672,0.5623 0.17353,0.78743 -0.34963,0.13976 -1.16188,-0.009 -1.86181,-0.34125 -1.10236,-0.52311 -3.57459,-1.0228 -6.16102,-1.24528 -0.48507,-0.0417 -3.2632,-0.10506 -6.17361,-0.14075 -2.91042,-0.0357 -5.49287,-0.19004 -5.73879,-0.34302 -0.24591,-0.15297 -1.33443,-0.16727 -2.41894,-0.0318 -1.54913,0.19355 -2.1653,0.46351 -2.87439,1.25933 -1.10341,1.2384 -1.45873,1.25335 -3.11256,0.13104 -0.88523,-0.60074 -1.78076,-0.88195 -2.80864,-0.88195 -0.82996,0 -2.19687,-0.29287 -3.03757,-0.65083 -0.84071,-0.35795 -2.40168,-0.74794 -3.46883,-0.86663 -1.71969,-0.19127 -5.0856,-0.71707 -10.31709,-1.61168 -0.92072,-0.15744 -1.9651,-0.54967 -2.32084,-0.87161 -0.35574,-0.32194 -0.87242,-0.58491 -1.14819,-0.58437 -1.13235,0.002 -3.4876,-1.6212 -4.20571,-2.8989 -0.85453,-1.52043 -1.41095,-1.72002 -1.41095,-0.50611 0,3.95442 4.22904,8.00276 10.56758,10.11602 1.8346,0.61166 4.21585,1.55192 5.29167,2.08948 2.58142,1.28987 7.00456,2.6856 10.06992,3.17758 1.35819,0.21799 3.42194,0.56495 4.58611,0.77103 1.16416,0.20608 5.05354,0.35949 8.64305,0.3409 6.48405,-0.0335 10.17229,-0.25589 20.99028,-1.2653 7.62514,-0.71149 30.15127,-1.35348 38.62917,-1.10092 7.08294,0.211 15.46235,1.0188 17.63889,1.70044 0.67909,0.21268 2.18722,0.41407 3.35138,0.44753 1.16417,0.0335 2.56357,0.24642 3.10978,0.47323 0.5462,0.2268 1.64618,0.41238 2.44439,0.41238 0.79822,0 1.93882,0.15643 2.53468,0.34762 1.79841,0.57705 12.23513,2.57918 14.31254,2.74565 1.06716,0.0855 2.03545,0.30804 2.15178,0.4945 0.25416,0.40741 6.61818,2.34068 8.60795,2.61493 0.77611,0.10698 1.91273,0.35022 2.52582,0.54053 2.09815,0.65132 12.63972,2.0823 19.17001,2.60227 3.58951,0.28581 7.24076,0.68063 8.11389,0.87738 0.87312,0.19675 3.96875,0.45762 6.87917,0.57969 2.91041,0.12208 5.34832,0.27195 5.41757,0.33305 0.0693,0.0611 0.86299,0.0457 1.76388,-0.0341 0.9009,-0.0799 2.77567,-0.21878 4.16618,-0.3087 z m -72.08935,-1.87313 c 0.38286,-0.22782 0.0977,-4.26457 -0.33162,-4.69386 -0.18448,-0.18448 -1.75845,-0.50006 -3.49771,-0.70128 -1.73926,-0.20122 -4.51166,-0.60622 -6.1609,-0.9 -6.8506,-1.2203 -10.17007,-1.68793 -12.17024,-1.7145 l -2.11606,-0.0281 -0.3731,3.11304 c -0.27516,2.29595 -0.2675,3.25742 0.0292,3.66315 0.51492,0.70419 4.49988,1.09905 11.80801,1.17002 3.00743,0.0292 6.2618,0.18124 7.23194,0.33785 1.67205,0.26992 4.95657,0.12495 5.58051,-0.24631 z m -67.68802,-1.12845 c 0.10967,-0.17746 0.0299,-0.37916 -0.17732,-0.44822 -0.6775,-0.22584 -3.15545,0.13158 -3.15545,0.45514 0,0.41621 3.0752,0.40983 3.33277,-0.007 z m 40.94278,-3.21387 c 0.002,-3.62762 -0.19834,-4.2246 -1.4185,-4.2246 -1.12975,0 -1.24143,0.59132 -0.74535,3.94653 0.49075,3.3192 0.7378,3.9045 1.57745,3.73718 0.49462,-0.0986 0.58476,-0.63032 0.5864,-3.45911 z m -45.87322,2.84742 c 0.33072,-0.53512 -2.11133,-0.98371 -6.86899,-1.2618 -5.1237,-0.29949 -6.57452,-0.27261 -7.30339,0.13529 -0.32741,0.18323 1.33111,0.46299 4.35753,0.73503 2.68737,0.24157 4.95228,0.50414 5.03312,0.5835 0.30635,0.30073 4.58334,0.12898 4.78173,-0.19202 z m 41.81054,-0.18827 c 0.23945,-0.28852 0.34668,-0.88383 0.23829,-1.32291 -0.10839,-0.43909 -0.29535,-1.59209 -0.41547,-2.56222 -0.40799,-3.29506 0.92161,-2.98776 -12.22612,-2.82572 -6.41479,0.0791 -11.72278,0.20328 -11.79554,0.27604 -0.0728,0.0728 -0.0148,1.3112 0.12893,2.75209 l 0.26121,2.61981 4.35014,0.0993 c 3.89017,0.0888 4.47546,0.0218 5.53535,-0.63322 l 1.18521,-0.7325 0.42147,0.80961 c 0.2318,0.44528 0.47257,0.869 0.53504,0.94158 0.0625,0.0726 1.03316,0.20915 2.15708,0.30347 1.12392,0.0943 3.07536,0.29188 4.33654,0.43902 3.7203,0.43405 4.81961,0.39988 5.28787,-0.16433 z m -58.91009,-0.8454 c 0,-0.40719 -1.72875,-0.73616 -1.95393,-0.37181 -0.14884,0.24082 0.16383,0.35843 1.68935,0.63542 0.14552,0.0264 0.26458,-0.0922 0.26458,-0.26361 z m 33.33821,-0.4821 c 0.25203,-0.71726 -0.66952,-4.60788 -1.127,-4.75797 -0.97943,-0.32132 -0.98836,4.57209 -0.009,4.96903 0.72563,0.29412 0.97482,0.24783 1.13606,-0.21106 z m -38.2771,-0.0674 c 0,-0.0856 -0.15875,-0.25368 -0.35277,-0.3736 -0.19403,-0.11991 -0.35278,-0.0499 -0.35278,0.15557 0,0.20548 0.15875,0.3736 0.35278,0.3736 0.19402,0 0.35277,-0.07 0.35277,-0.15557 z m 33.7966,-0.19332 c 0.7574,-0.004 0.80665,-0.13328 0.73387,-1.93204 -0.0429,-1.06048 -0.19336,-2.1148 -0.33436,-2.34294 -0.31938,-0.51677 -6.51773,-0.49317 -7.89393,0.0301 -0.52146,0.19826 -2.87291,0.36047 -5.22544,0.36047 -4.24998,0 -8.34118,0.55465 -8.78507,1.19101 -0.64068,0.91846 0.18092,1.27844 2.91784,1.27844 1.53274,0 4.41294,0.25848 6.40045,0.5744 4.89233,0.77765 8.65253,1.14062 10.14004,0.9788 0.6791,-0.0739 1.60007,-0.13607 2.0466,-0.13821 z m -40.49937,-0.63889 c 0,-0.15522 -0.19164,-0.47385 -0.42586,-0.70807 -0.33262,-0.33262 -0.30412,-0.54758 0.13015,-0.98185 0.45982,-0.45983 0.79284,-0.48968 1.92515,-0.17261 2.04633,0.57301 11.77611,0.94346 11.77611,0.44835 0,-0.69458 -1.30531,-1.12574 -3.41639,-1.12848 -1.12842,-0.001 -3.00416,-0.15069 -4.16833,-0.3316 -1.16417,-0.18091 -3.30729,-0.41427 -4.7625,-0.51857 -1.45521,-0.1043 -3.20041,-0.35196 -3.87823,-0.55035 -1.5579,-0.45598 -2.47177,-0.45991 -2.47177,-0.0106 0,0.33134 0.22275,0.62501 2.18397,2.87936 0.74189,0.85277 1.45169,1.20298 2.66672,1.31574 0.24254,0.0225 0.44098,-0.0861 0.44098,-0.2413 z m 17.57522,-1.74625 c 0.0988,-0.69596 -0.0424,-0.79375 -1.14652,-0.79375 -1.27666,0 -1.43579,0.18783 -1.03781,1.22495 0.34396,0.89634 2.04344,0.56085 2.18433,-0.4312 z m 151.40533,-3.94793 c 0,-0.18257 -0.16777,-0.43565 -0.37283,-0.56238 -0.53268,-0.32922 -2.1671,0.14211 -1.91383,0.5519 0.27196,0.44004 2.28666,0.44927 2.28666,0.0105 z m 13.05278,-2.16943 c 0.3929,-0.22228 0.28677,-0.30214 -0.41212,-0.31011 -1.23994,-0.0141 -2.1037,0.33439 -1.84922,0.74615 0.20441,0.33074 1.26878,0.1255 2.26134,-0.43604 z m -35.7153,-1.39047 c 0.33765,-0.39426 0.65476,-1.06895 0.70467,-1.4993 0.0499,-0.43035 0.18317,-1.51384 0.2961,-2.40775 0.1846,-1.46112 0.11055,-1.69986 -0.73295,-2.36336 -1.47006,-1.15635 -3.64465,-1.33368 -5.36415,-0.43743 -2.1025,1.09589 -2.64583,1.83312 -2.5152,3.41281 0.1057,1.27822 0.24111,1.41705 2.581,2.6462 2.85762,1.50113 4.1571,1.66873 5.03053,0.64883 z m 13.29913,0.0504 c 3.37269,-1.05266 2.7626,-2.20654 -0.69077,-1.30646 -1.35156,0.35226 -1.79025,0.63659 -1.87662,1.2163 -0.13622,0.91417 -0.0791,0.91618 2.56739,0.0902 z m 26.45805,0.33802 c 0.38447,-0.62208 -0.49938,-0.76014 -1.47588,-0.23054 l -0.9785,0.53069 1.12571,0.0141 c 0.61914,0.008 1.21704,-0.13366 1.32867,-0.31428 z m -6.38417,-0.95427 c 0.9002,-0.12339 1.63674,-0.34987 1.63674,-0.50328 0,-0.15342 -0.85453,-0.76785 -1.89895,-1.3654 -1.04441,-0.59756 -2.09085,-1.3177 -2.3254,-1.60033 -0.37236,-0.44865 -0.53427,-0.44322 -1.27606,0.0428 -1.06976,0.70093 -1.06346,1.01048 0.0503,2.4707 0.95077,1.24652 1.21216,1.31202 3.81336,0.95549 z m 10.71496,-2.44892 c 0.43337,-0.76103 0.79056,-1.79258 0.79375,-2.29234 0.006,-0.99818 1.27275,-2.38068 2.72415,-2.97393 l 0.92039,-0.37622 -1.17994,-1.34388 c -0.64897,-0.73913 -2.01879,-1.71486 -3.04406,-2.16828 -1.02527,-0.45342 -2.57192,-1.31138 -3.43702,-1.90658 -0.86509,-0.5952 -1.8007,-1.08218 -2.07912,-1.08218 -0.27842,0 -0.90644,-0.31481 -1.3956,-0.69959 -1.11026,-0.87333 -4.16954,-1.69245 -7.84883,-2.10152 -1.55222,-0.17258 -3.69226,-0.63156 -4.75564,-1.01995 -1.06338,-0.38839 -2.056,-0.6304 -2.20582,-0.53781 -0.32963,0.20373 0.3343,1.53664 0.76542,1.53664 0.16803,0 0.63489,0.55826 1.03747,1.24057 1.90991,3.23706 3.55394,4.65619 5.58084,4.8174 1.54812,0.12312 1.79896,0.0257 3.10051,-1.20448 2.08559,-1.97121 2.74657,-1.65098 2.14763,1.04048 -0.23647,1.06257 -0.17004,1.16563 1.09103,1.69253 1.45034,0.60599 2.93131,1.82972 2.9541,2.44097 0.008,0.20871 0.81617,1.01259 1.79642,1.78639 2.19428,1.73213 2.60735,2.41505 1.8929,3.12951 -0.63988,0.63987 -0.70269,1.75328 -0.0875,1.55097 0.24253,-0.0798 0.79555,-0.76768 1.22892,-1.5287 z m -55.64489,0.67256 c 0,-0.97574 -1.09139,-1.87986 -2.26924,-1.87986 -0.60585,0 -1.46174,-0.25229 -1.90196,-0.56063 -0.44023,-0.30835 -1.05279,-0.46379 -1.36124,-0.34542 -0.50164,0.19249 -0.49414,0.28889 0.071,0.9134 0.34752,0.38401 0.8392,0.6982 1.09261,0.6982 0.25341,0 0.74474,0.30368 1.09185,0.67483 0.34711,0.37115 1.10736,0.74424 1.68944,0.82909 0.58208,0.0848 1.17739,0.17804 1.32292,0.20712 0.14552,0.0291 0.26458,-0.21246 0.26458,-0.53673 z m 29.28055,-0.46875 c 0,-0.39197 -0.23518,-0.70556 -0.52916,-0.70556 -0.29398,0 -0.52917,0.31359 -0.52917,0.70556 0,0.39198 0.23519,0.70556 0.52917,0.70556 0.29398,0 0.52916,-0.31358 0.52916,-0.70556 z m 23.63612,0.37832 c 0,-0.17998 -0.99219,-0.92347 -2.20487,-1.6522 -1.21267,-0.72874 -2.58569,-1.56773 -3.05116,-1.86444 -0.8157,-0.51996 -0.83186,-0.51249 -0.44697,0.2067 0.53299,0.99589 2.99837,2.92174 4.20534,3.28503 1.32634,0.39921 1.49766,0.40206 1.49766,0.0249 z m -68.09982,-1.70117 c -0.0193,-0.87112 -3.06318,-2.28997 -4.59872,-2.14363 -1.37748,0.13127 -1.49644,0.7652 -0.17472,0.93102 0.48359,0.0607 1.56009,0.48544 2.39222,0.94393 1.8412,1.01447 2.39917,1.07743 2.38122,0.26868 z m 40.67134,-0.93205 c 0.33955,-0.25776 0.61736,-0.62459 0.61736,-0.81519 0,-0.20593 0.53682,-0.25375 1.32292,-0.11786 0.95766,0.16555 1.68818,0.043 2.64583,-0.44393 1.21115,-0.61579 1.32218,-0.79629 1.31418,-2.13631 -0.0107,-1.79049 -1.83024,-4.4828 -3.59584,-5.32063 -1.41679,-0.67231 -4.03105,-0.81937 -4.59211,-0.25831 -0.2261,0.2261 -0.83098,0.41109 -1.34419,0.41109 -1.1216,0 -1.86567,0.78021 -2.43481,2.55306 -0.83707,2.60745 -0.0283,4.43831 2.56635,5.80947 1.69528,0.89589 2.628,0.98079 3.50031,0.31861 z m -36.22679,-2.84304 c 0.61127,-0.93292 0.47599,-1.87306 -0.48474,-3.36866 -0.31159,-0.48507 -0.61553,-1.19944 -0.67541,-1.5875 -0.18645,-1.20828 -1.13603,-1.58786 -3.95548,-1.58114 l -2.66661,0.006 -1.18269,1.4241 c -1.30362,1.56972 -1.87741,3.90996 -1.07956,4.40306 0.25532,0.15779 1.08185,0.25045 1.83672,0.20591 0.75488,-0.0445 1.59698,0.10531 1.87134,0.33301 0.6498,0.53928 2.41099,0.9482 4.2787,0.99343 1.21544,0.0294 1.59594,-0.12378 2.05773,-0.82856 z m 49.33713,0.56147 c 0.10307,-0.16677 -0.28444,-0.72362 -0.86112,-1.23745 -0.57669,-0.51383 -1.04852,-1.09176 -1.04852,-1.28429 0,-0.40528 -1.64563,-0.48018 -1.87804,-0.0855 -0.35286,0.59928 0.5149,1.87182 1.59963,2.34582 1.3823,0.60403 1.93545,0.67011 2.18805,0.26139 z m -77.88576,-0.96075 c -0.55597,-0.48889 -1.0944,-0.80535 -1.19651,-0.70323 -0.22679,0.22679 1.36254,1.5907 1.85457,1.59152 0.19403,3.3e-4 -0.1021,-0.39941 -0.65806,-0.88829 z m -4.20514,-0.0155 c 0.20129,-0.61304 -0.92162,-0.88585 -2.60638,-0.6332 -2.53416,0.38002 -1.71139,1.19819 1.09216,1.08605 0.76103,-0.0305 1.44243,-0.23422 1.51422,-0.45285 z m -85.88888,-0.29323 c 2.01749,-0.34036 1.57654,-0.89744 -0.70556,-0.89137 -2.39591,0.006 -3.34892,0.41369 -2.33538,0.99811 0.36283,0.20921 0.89781,0.32099 1.18885,0.24841 0.29105,-0.0726 1.12448,-0.23241 1.85209,-0.35515 z m 19.41546,-0.10302 c 0.49572,-0.44638 1.28504,-0.61736 2.85,-0.61736 h 2.1644 l -0.047,-1.83205 c -0.031,-1.20574 -0.31216,-2.26102 -0.82253,-3.08681 -0.76553,-1.23866 -0.80623,-1.25475 -3.17295,-1.25475 -1.64214,0 -2.52863,0.15803 -2.81376,0.50159 -0.22896,0.27587 -1.03774,0.60658 -1.7973,0.73491 -0.75956,0.12833 -1.36022,0.33917 -1.3348,0.46855 0.0844,0.42975 -0.54401,1.64092 -1.04757,2.01888 -0.27299,0.2049 -0.44157,0.75359 -0.37464,1.21932 0.0957,0.66569 0.43933,0.9255 1.60704,1.21495 0.81694,0.20251 1.68213,0.56663 1.92264,0.80916 0.62689,0.63216 2.067,0.54355 2.86651,-0.17639 z m 106.58554,0.0504 c 0.30692,-0.11777 0.55803,-0.31714 0.55803,-0.44305 0,-0.3893 -1.85684,-1.02285 -3.64443,-1.24347 -2.25448,-0.27823 -2.07083,0.44534 0.31854,1.25501 2.07887,0.70446 2.06302,0.70199 2.76786,0.43151 z m -22.8177,-0.73501 c -0.328,-0.328 -0.69542,-0.49731 -0.81648,-0.37624 -0.3472,0.3472 0.1858,0.97261 0.8289,0.97261 0.5385,0 0.53754,-0.0464 -0.0124,-0.59637 z m -112.7965,-0.21093 c 0,-0.25001 -0.3175,-1.07733 -0.70555,-1.83848 -0.38806,-0.76115 -0.70556,-1.71546 -0.70556,-2.1207 0,-1.07849 -0.66835,-1.57326 -1.81533,-1.34387 -0.78183,0.15636 -1.00689,0.0713 -1.00689,-0.38062 0,-0.32009 0.38145,-0.72702 0.84767,-0.90428 1.294,-0.49197 1.37575,-0.96901 0.20706,-1.20824 -3.46778,-0.70984 -3.1714,-0.74992 -3.1714,0.4288 0,0.59265 0.14117,1.16479 0.3137,1.27143 0.17253,0.10663 0.41476,0.59652 0.53827,1.08865 0.27681,1.1029 2.27601,4.42504 3.01475,5.0097 0.72887,0.57685 2.48328,0.57516 2.48328,-0.002 z m -6.70278,-0.56254 c 0,-0.19054 -0.27781,-0.44162 -0.61736,-0.55795 -0.33955,-0.11633 -1.17298,-0.9371 -1.85208,-1.82393 -0.6791,-0.88682 -1.43316,-1.82288 -1.67569,-2.08012 -0.24254,-0.25724 -0.44098,-0.70019 -0.44098,-0.98433 0,-0.28414 -0.22691,-0.6037 -0.50425,-0.71012 -0.34815,-0.1336 -0.47269,-0.63673 -0.40228,-1.62525 0.12813,-1.79884 -0.26701,-1.83106 -2.77567,-0.22629 -2.10231,1.34483 -2.32917,1.61585 -2.65645,3.17348 -0.17617,0.83841 -0.41072,1.08226 -1.01893,1.05931 -0.59799,-0.0226 -0.76453,0.14224 -0.685,0.67791 0.0586,0.39439 0.41747,0.75029 0.81064,0.80384 0.6843,0.0932 3.13058,0.78439 5.29167,1.49514 2.40398,0.79063 3.25566,0.97649 4.85069,1.05854 0.92163,0.0474 1.67569,-0.0697 1.67569,-0.26023 z m 80.01431,-0.48219 c -0.24411,-0.43656 -0.46708,-1.11125 -0.49549,-1.4993 -0.22093,-3.01828 -0.69932,-5.96585 -1.25278,-7.71888 -0.36021,-1.14093 -0.65493,-2.39966 -0.65493,-2.79717 0,-0.79266 -0.46992,-2.38431 -1.42598,-4.82979 -0.34134,-0.87312 -0.71993,-2.33945 -0.84131,-3.2585 -0.38504,-2.9154 -0.89481,-3.50484 -1.52955,-1.76858 -1.02834,2.81291 -1.17105,3.80837 -0.79654,5.55625 0.20787,0.97014 0.54939,2.79576 0.75895,4.05695 0.20955,1.26118 0.52303,2.56871 0.69661,2.90562 0.17358,0.33692 0.31801,1.0513 0.32096,1.5875 0.009,1.68406 0.89055,4.02301 1.78278,4.73144 l 0.8577,0.68101 -0.79375,0.55829 c -0.75348,0.52998 -1.06588,1.84641 -0.55857,2.35373 0.12935,0.12935 1.16681,0.23518 2.30547,0.23518 2.04328,0 2.06449,-0.0103 1.62643,-0.79375 z m -12.63375,0.0882 c 0,-0.19403 0.25135,-0.35278 0.55856,-0.35278 0.30722,0 0.49242,-0.19844 0.41158,-0.44097 -0.18266,-0.54798 -6.60696,-0.63346 -6.62856,-0.0882 -0.008,0.19403 0.30981,0.40351 0.70556,0.46551 0.39574,0.062 0.71952,0.26044 0.71952,0.44097 0,0.18054 0.95251,0.32825 2.11667,0.32825 1.17593,0 2.11667,-0.15679 2.11667,-0.35278 z m 42.42153,-0.59002 c 0.14552,-0.0864 0.26458,-0.77722 0.26458,-1.53506 0,-1.01682 -0.18488,-1.47682 -0.70555,-1.75548 -0.38806,-0.20768 -0.70556,-0.61354 -0.70556,-0.90192 0,-0.28837 -0.35719,-0.65936 -0.79375,-0.82441 -3.83273,-1.44906 -6.06579,-1.5405 -6.93178,-0.28385 -0.29391,0.4265 -1.13653,1.37691 -1.87248,2.11201 -1.41899,1.41735 -1.77455,2.92784 -0.77911,3.30982 0.30745,0.11798 1.39214,0.0146 2.41043,-0.22964 1.60471,-0.38497 1.98859,-0.36791 2.88059,0.12803 0.80228,0.44604 1.57354,0.52428 3.4986,0.35493 1.35819,-0.11948 2.58851,-0.28797 2.73403,-0.37443 z m 9.78958,-0.81392 c 0,-0.3393 -2.82929,-1.94545 -3.175,-1.80241 -0.097,0.0402 -0.26292,-0.29357 -0.36868,-0.74158 -0.26064,-1.10408 -1.73048,-1.12024 -2.13619,-0.0235 -0.2467,0.66691 -0.1146,0.88686 0.84153,1.4012 2.46819,1.32774 4.83834,1.89907 4.83834,1.16628 z m -106.5157,-0.37236 c 1.22371,-0.65491 0.63895,-1.75148 -0.93399,-1.75148 -0.50719,0 -0.70968,1.43692 -0.26512,1.88148 0.30944,0.30945 0.39541,0.30013 1.19911,-0.13 z m 38.40892,-0.005 c 6.70089,-0.60793 7.0431,-0.6729 7.43879,-1.41225 0.5788,-1.08149 -0.43987,-2.58242 -2.55563,-3.76553 -1.02513,-0.57325 -2.22201,-1.13241 -2.65972,-1.24258 -1.18362,-0.29791 -4.28698,0.63468 -5.33865,1.60431 -0.50659,0.46707 -1.19888,0.94688 -1.53843,1.06625 -0.33955,0.11937 -0.61736,0.53014 -0.61736,0.91284 0,0.38269 -0.15875,0.79392 -0.35278,0.91383 -0.3963,0.24493 -0.47923,1.69623 -0.11759,2.05787 0.31429,0.31429 0.95852,0.29917 5.74137,-0.13474 z m 87.05582,-0.20382 c 0.0719,-0.21854 -0.43737,-0.73251 -1.13165,-1.14215 -1.02764,-0.60633 -1.29783,-0.6523 -1.45325,-0.24728 -0.105,0.27363 0.0992,0.81778 0.45372,1.20922 0.67891,0.74954 1.9097,0.85362 2.13118,0.18021 z m -66.256,-1.40589 c 0.0779,-0.0695 -0.2396,-0.50152 -0.70556,-0.96007 -0.88398,-0.86992 -3.18677,-1.45186 -3.716,-0.93906 -0.16841,0.16319 -0.77885,0.3486 -1.35653,0.41204 -0.99569,0.10934 -1.19661,0.52143 -0.92915,1.90571 0.0403,0.2085 6.45286,-0.19173 6.70724,-0.41862 z m 82.35974,0.11853 c 0.57549,-0.42081 0.56141,-0.50073 -0.21712,-1.23212 -0.93807,-0.88125 -4.14399,-1.52144 -4.14399,-0.82749 0,0.36937 3.00995,2.50963 3.52942,2.50963 0.11895,0 0.49322,-0.2025 0.83169,-0.45 z m -65.12709,-0.69469 c 0.63305,-0.50646 0.55563,-0.86872 -0.47421,-2.21891 -0.86744,-1.13727 -1.0009,-1.18888 -2.55764,-0.98907 -0.90335,0.11595 -1.77728,0.33301 -1.94208,0.48235 -0.4023,0.36459 0.0628,1.75321 0.58799,1.75542 0.22945,0.001 0.89344,0.39065 1.47553,0.86597 1.0498,0.85726 1.9298,0.88878 2.91041,0.10424 z m 53.71042,0.11221 c 0,-0.47683 -2.07906,-1.43695 -3.1116,-1.43695 -1.19077,0 -0.71606,0.40728 1.285,1.10247 0.90762,0.31531 1.6899,0.59313 1.73841,0.61736 0.0485,0.0242 0.0882,-0.10306 0.0882,-0.28288 z m 35.3312,-0.555 c 0.009,-0.19403 0.16484,-0.63059 0.34656,-0.97014 0.23483,-0.4388 0.19926,-0.61876 -0.12298,-0.62218 -0.24936,-0.003 -0.81057,-0.10054 -1.24714,-0.21754 -0.66286,-0.17763 -0.79375,-0.0721 -0.79375,0.63982 0,0.4689 0.19513,1.04767 0.43363,1.28617 0.49057,0.49056 1.35924,0.41765 1.38368,-0.11613 z m -155.61376,-0.38018 c 1.34585,-0.3061 2.52271,-0.67905 2.61524,-0.82877 0.0925,-0.14972 -0.21044,-0.47488 -0.67326,-0.72258 -0.64694,-0.34622 -1.10495,-0.35852 -1.98088,-0.0532 -0.62666,0.21845 -1.75568,0.39719 -2.50892,0.39719 -1.4586,0 -2.23625,0.8552 -1.31061,1.44131 0.67531,0.4276 1.04942,0.40491 3.85843,-0.23399 z m 101.93812,-0.3858 c 0,-0.54966 -1.22425,-1.52667 -1.90676,-1.52168 -1.14513,0.008 -1.76425,0.49907 -1.19674,0.94851 0.88897,0.70404 3.1035,1.11304 3.1035,0.57317 z m 22.57778,-0.11573 c 0,-0.19403 -0.2475,-0.35278 -0.54999,-0.35278 -0.30249,0 -0.45187,0.15875 -0.33196,0.35278 0.11992,0.19403 0.36741,0.35278 0.54999,0.35278 0.18258,0 0.33196,-0.15875 0.33196,-0.35278 z m -28.30866,-0.78847 c -0.16595,-0.49786 -2.28214,-1.19388 -2.6157,-0.86032 -0.12135,0.12135 -0.0198,0.46259 0.22561,0.75832 0.543,0.65427 2.60349,0.74221 2.39009,0.102 z m 55.11977,-1.47971 c 2.86134,-0.13321 2.99861,-0.17707 2.99861,-0.9582 0,-0.86977 0.0827,-0.84036 -4.7625,-1.69434 -1.06715,-0.18808 -3.27089,-0.43143 -4.89719,-0.54077 -1.62631,-0.10933 -3.05841,-0.26152 -3.18246,-0.33818 -0.12404,-0.0767 -0.93211,-0.24477 -1.79571,-0.37358 -0.86359,-0.1288 -2.20961,-0.46474 -2.99116,-0.74652 -1.51413,-0.54592 -10.68293,-1.39837 -11.05361,-1.02769 -0.28674,0.28674 3.85866,4.24337 5.14005,4.906 0.54236,0.28047 2.80695,0.6919 5.0324,0.91428 2.22546,0.22239 4.59054,0.51835 5.25574,0.65769 0.6652,0.13935 2.5702,0.0481 4.23333,-0.20286 1.66314,-0.25092 4.37326,-0.51904 6.0225,-0.59583 z m -159.95189,-0.2929 c 0.067,-0.067 0.0327,-0.66909 -0.0762,-1.338 -0.19025,-1.1683 -0.2581,-1.2162 -1.72304,-1.2162 -0.83875,0 -1.62716,0.10191 -1.75203,0.22645 -0.12486,0.12456 0.0209,0.81993 0.32401,1.54527 0.5229,1.25147 0.61627,1.30823 1.82827,1.11155 0.70247,-0.11399 1.33204,-0.26207 1.39903,-0.32907 z m 136.31578,-0.52958 c 0.097,-0.0919 -0.12718,-0.34691 -0.49821,-0.56669 -0.37103,-0.21978 -0.92945,-0.63772 -1.24094,-0.92876 -0.31148,-0.29104 -1.23822,-1.05844 -2.05943,-1.70534 -0.8212,-0.64689 -1.49309,-1.38741 -1.49309,-1.64559 0,-0.33251 -0.79743,-0.52987 -2.73403,-0.67664 -2.67087,-0.20242 -4.57062,-0.45705 -10.67153,-1.43037 -1.64923,-0.26311 -4.10986,-0.58112 -5.46805,-0.70669 -1.3582,-0.12557 -2.86632,-0.29962 -3.35139,-0.38678 -0.52129,-0.0937 -1.37956,0.14688 -2.09879,0.58821 l -1.21684,0.74668 1.18186,0.49694 c 0.65002,0.27331 1.35879,0.7389 1.57504,1.03464 0.42566,0.58214 4.08472,1.64886 8.34459,2.4327 1.46883,0.27028 4.07937,1.05947 5.8012,1.75377 3.55448,1.43328 3.92547,1.48606 4.81118,0.68451 0.53663,-0.48564 0.72874,-0.50299 1.20384,-0.1087 0.92288,0.76593 7.1975,1.0974 7.91459,0.41811 z m -82.55001,-0.0411 c 0,-0.47495 -0.75642,-0.97108 -2.11666,-1.3883 -2.00623,-0.61536 -3.35139,-0.65912 -3.35139,-0.10902 0,0.28362 0.44089,0.52619 1.05833,0.58226 0.58209,0.0529 1.61396,0.34382 2.29306,0.64657 1.40727,0.62738 2.11666,0.71736 2.11666,0.26849 z m -64.81868,-1.63551 c -0.0462,-0.73648 -0.15791,-1.41299 -0.24829,-1.50337 -0.0904,-0.0904 -0.88603,-0.0561 -1.76812,0.0762 -1.37239,0.2058 -1.60379,0.3584 -1.60379,1.05763 0,1.00828 0.56259,1.5008 1.94027,1.6986 1.61933,0.2325 1.77035,0.11302 1.67993,-1.32905 z m -11.43725,-0.33587 c 1.89949,-0.91472 2.1726,-1.17111 2.1726,-2.03955 0,-1.18884 0.81994,-1.61273 1.60363,-0.82903 0.73125,0.73124 0.97595,0.71071 1.75219,-0.14702 0.48948,-0.54087 0.91017,-0.66033 1.7624,-0.50045 1.86869,0.35057 3.90256,-0.39402 4.40775,-1.61366 0.51545,-1.2444 1.1313,-1.34636 1.82467,-0.30208 0.53547,0.80647 0.70777,0.83099 8.22853,1.17122 1.94028,0.0878 5.15817,0.0638 7.15088,-0.0532 3.31722,-0.19487 3.60561,-0.26798 3.41581,-0.86597 -0.17726,-0.55851 -0.0122,-0.65213 1.13939,-0.64615 0.74069,0.004 2.42746,0.16325 3.74841,0.35424 1.6049,0.23204 2.62287,0.22889 3.06835,-0.01 0.36665,-0.19622 2.14338,-0.44347 3.94829,-0.54942 4.92181,-0.28892 5.69086,-0.44207 5.11443,-1.0185 -1.29063,-1.29063 -4.75665,-2.60285 -7.83696,-2.96702 -6.69717,-0.7918 -18.79383,-0.32681 -21.55938,0.82871 -0.7007,0.29277 -1.69117,0.53419 -2.20105,0.53649 -0.50989,0.002 -1.80018,0.25576 -2.86734,0.56324 -1.06715,0.30748 -3.1309,0.85504 -4.58611,1.2168 -1.45521,0.36177 -3.43958,0.89152 -4.40972,1.17724 -1.73914,0.51219 -2.51983,0.77471 -5.99722,2.01667 -0.97014,0.34648 -2.19757,0.71982 -2.72761,0.82964 -0.58669,0.12155 -1.17131,0.6011 -1.49432,1.22573 -0.51316,0.99234 -0.49453,1.05641 0.56716,1.94976 0.60376,0.50804 1.21135,0.87745 1.35019,0.82092 0.13883,-0.0565 1.2301,-0.5736 2.42503,-1.14903 z m 15.93094,0.16429 c 0,-0.70555 -0.17639,-1.05833 -0.52917,-1.05833 -0.61928,0 -0.67425,0.48084 -0.16398,1.4343 0.50985,0.95266 0.69315,0.85324 0.69315,-0.37597 z m 34.57222,-0.21958 c 0,-0.4905 -0.16784,-0.509 -6.35,-0.70027 -1.26119,-0.039 -3.48142,-0.23922 -4.93386,-0.44489 -2.85729,-0.40459 -3.46091,-0.21256 -2.68164,0.85315 0.4622,0.6321 0.88829,0.67686 5.49622,0.57749 2.85662,-0.0616 5.17249,0.0378 5.40932,0.23216 1.08089,0.88713 3.05996,0.55234 3.05996,-0.51764 z m -16.75545,0.57179 c 0.68687,-0.26115 0.89997,-0.56031 0.81671,-1.14653 -0.10679,-0.75189 -0.29371,-0.79919 -3.59072,-0.90862 -2.76411,-0.0917 -3.44615,-0.0197 -3.3226,0.35092 0.0855,0.2565 0.9948,0.65275 2.02068,0.88056 1.02587,0.22781 2.03686,0.58584 2.24663,0.79561 0.46998,0.46997 0.65934,0.47288 1.8293,0.028 z m 45.37601,-0.80053 c -0.58732,-0.58733 -0.91997,-0.004 -0.37331,0.65487 0.33061,0.39837 0.52182,0.44594 0.61912,0.15404 0.0774,-0.23228 -0.0332,-0.59629 -0.24581,-0.80891 z m 29.94055,0.0702 c 0,-0.45035 -1.09587,-0.95287 -2.29408,-1.05196 -1.83922,-0.1521 -5.59351,0.0101 -5.37155,0.23203 0.11719,0.11719 1.52985,0.3604 3.13925,0.54046 1.60939,0.18005 3.06744,0.46864 3.2401,0.6413 0.35713,0.35714 1.28628,0.0958 1.28628,-0.36183 z m -54.68056,0.0631 c 0,-0.17327 -0.25111,-0.4114 -0.55802,-0.52917 -0.78848,-0.30257 -0.85309,-0.27871 -0.85309,0.31504 0,0.29398 0.31358,0.52916 0.70556,0.52916 0.38805,0 0.70555,-0.14177 0.70555,-0.31503 z m 60.50139,-0.39052 c -0.35118,-0.38806 -0.87664,-0.70556 -1.16769,-0.70556 -0.43391,0 -0.41423,0.127 0.10936,0.70556 0.35119,0.38805 0.87664,0.70555 1.16769,0.70555 0.43391,0 0.41423,-0.12699 -0.10936,-0.70555 z m -14.93524,-1.77865 c 1.55166,-0.39618 3.10495,-0.63026 3.45176,-0.52018 0.75995,0.24119 2.48765,-0.36125 2.48765,-0.86744 0,-0.19883 -0.60755,-0.96906 -1.3501,-1.71161 -1.33295,-1.33295 -1.38783,-1.35108 -4.32152,-1.42741 -1.63429,-0.0425 -3.20956,-0.095 -3.5006,-0.11659 -0.29105,-0.0216 -1.04511,-0.0143 -1.6757,0.0163 l -1.14653,0.0556 v 1.94027 c 0,1.70234 0.0861,1.94028 0.70257,1.94028 0.38641,0 0.90085,0.3175 1.14319,0.70556 0.54606,0.87437 0.7294,0.87373 4.20928,-0.0147 z m -39.22595,-0.68598 c 0.86548,-0.005 0.86683,-0.01 0.17639,-0.67162 -0.80247,-0.76909 -4.39992,-1.25789 -4.39992,-0.59784 0,0.6191 1.86252,1.63718 2.64583,1.44625 0.38806,-0.0946 1.09802,-0.17414 1.5777,-0.17679 z m 17.49274,-1.50412 c -0.13514,-1.01865 -0.28868,-2.29499 -0.3412,-2.83633 -0.0525,-0.54133 -0.28108,-1.16982 -0.50791,-1.39665 -0.28545,-0.28545 -2.7842,-0.43175 -8.11656,-0.47522 -4.23728,-0.0345 -8.16491,-0.16055 -8.72807,-0.28 -0.56316,-0.11945 -1.50017,-0.0817 -2.08225,0.0839 l -1.05834,0.30105 1.23472,0.59446 c 0.6791,0.32695 2.00559,1.04418 2.94776,1.59383 1.11741,0.65189 2.45509,1.07693 3.84724,1.22244 1.48678,0.1554 2.8038,0.59753 4.34151,1.45747 1.21402,0.67891 2.44234,1.23439 2.7296,1.23439 0.85139,0 0.99685,-1.0256 0.23767,-1.67563 -0.79449,-0.68026 -0.93604,-1.85215 -0.22373,-1.85215 0.26097,0 0.76182,0.3175 1.11301,0.70556 0.35119,0.38805 0.81235,0.70556 1.02482,0.70557 0.21246,0 0.82962,0.55563 1.37147,1.23472 0.55946,0.70116 1.30296,1.23471 1.72058,1.23471 0.68316,0 0.71795,-0.13155 0.48968,-1.85208 z m 46.04592,1.4993 c 1.80083,0 1.75541,-0.55594 -0.11705,-1.43253 -0.82462,-0.38604 -1.89618,-0.9264 -2.38125,-1.2008 -0.48507,-0.27439 -2.47787,-0.62759 -4.42843,-0.78487 -4.12828,-0.33288 -12.37574,-0.0793 -11.21458,0.34483 0.41864,0.1529 0.84747,0.50292 0.95295,0.77781 0.10549,0.27489 0.79484,0.80064 1.5319,1.16835 1.11905,0.55827 2.23669,0.67951 6.77537,0.73497 2.9894,0.0365 5.68815,0.21484 5.99723,0.39623 0.30907,0.1814 0.77337,0.25471 1.03177,0.16291 0.25841,-0.0918 1.09184,-0.1669 1.85209,-0.1669 z m -71.19081,-1.23472 c 0.0939,-0.42878 -1.33863,-0.67052 -2.1434,-0.3617 -0.50262,0.19287 -0.51113,0.26914 -0.0625,0.56026 0.63846,0.41434 2.10058,0.28273 2.20594,-0.19856 z m -3.45055,-0.17639 c 0.56343,-0.24211 0.43487,-0.30818 -0.63818,-0.32798 -0.81134,-0.015 -1.25735,0.11497 -1.12571,0.32798 0.25751,0.41665 0.79429,0.41665 1.76389,0 z m 77.25834,-0.70556 c -0.11992,-0.19402 -0.53553,-0.35277 -0.92359,-0.35277 -0.38805,0 -0.60744,0.15875 -0.48752,0.35277 0.11991,0.19403 0.53552,0.35278 0.92358,0.35278 0.38805,0 0.60744,-0.15875 0.48753,-0.35278 z m -36.53345,-2.02847 c -0.0237,-0.92163 -0.0207,-3.81882 0.007,-6.43819 0.0276,-2.61938 -0.1064,-5.95313 -0.29766,-7.40834 -0.19125,-1.45521 -0.44365,-3.8981 -0.56088,-5.42866 -0.11723,-1.53056 -0.38894,-3.11132 -0.60381,-3.51281 -0.21487,-0.40148 -0.53758,-2.48296 -0.71713,-4.6255 -0.17955,-2.14254 -0.38979,-4.65129 -0.46717,-5.57499 -0.0774,-0.92371 -0.29072,-1.95974 -0.47405,-2.3023 -0.40816,-0.76264 -1.07064,-4.389824 -1.1091,-6.072414 -0.0155,-0.67909 0.10611,-4.01284 0.27031,-7.40833 l 0.29853,-6.17361 -0.94531,-1.88214 c -0.51993,-1.03519 -1.02078,-1.74956 -1.11302,-1.58751 -0.27803,0.4885 -1.58321,6.13119 -1.99514,8.6256 -0.21197,1.28355 -0.38483,3.82355 -0.38414,5.64445 0.001,3.42899 1.35253,15.433624 2.2588,20.067664 0.97517,4.98635 2.01791,9.70208 2.52466,11.41759 0.27882,0.94391 0.50695,2.03805 0.50695,2.43141 0,0.39337 0.30452,1.7642 0.67671,3.0463 0.70694,2.43518 1.28296,5.86265 1.12602,6.70001 -0.14541,0.77578 0.293,2.15747 0.68456,2.15747 0.19699,0 0.33781,-0.75155 0.31399,-1.6757 z m -33.33623,0.29642 c 0.37878,-0.61288 -0.25078,-1.4764 -1.52314,-2.08915 -1.03827,-0.50002 -1.87781,-0.58031 -4.45441,-0.42595 l -3.175,0.19021 2.46945,1.30557 c 1.98609,1.05002 2.8624,1.30896 4.47709,1.32291 1.10421,0.01 2.09691,-0.12707 2.20601,-0.30359 z m 92.25408,-0.80865 c 0.53675,-0.33521 0.86822,-0.32278 1.58218,0.0593 0.92519,0.49514 1.50125,0.33972 1.10675,-0.29861 -0.25422,-0.41133 -3.29881,-2.51168 -3.64085,-2.51168 -0.41261,0 -4.99768,-4.99216 -5.21555,-5.67862 -0.1172,-0.36926 -0.34263,-0.67138 -0.50097,-0.67138 -0.50616,0 -0.62378,1.64047 -0.28248,3.93988 0.42094,2.83602 0.41791,2.73331 0.11996,4.05839 -0.22119,0.98378 -0.15298,1.13795 0.56413,1.27488 1.76473,0.33697 5.62121,0.23101 6.26683,-0.17219 z m -9.86079,-0.61347 c 0,-0.18258 -0.13551,-0.41571 -0.30113,-0.51807 -0.16563,-0.10236 -0.41942,-1.50079 -0.564,-3.10763 -0.14457,-1.60683 -0.29851,-3.31839 -0.34209,-3.80346 -0.29564,-3.29065 -0.68034,-5.64444 -0.92252,-5.64444 -0.49028,0 -0.97371,2.61828 -1.37086,7.42471 -0.15305,1.85228 -0.47212,3.73 -0.70906,4.17271 -0.74443,1.39098 -0.26412,1.80813 2.08192,1.80813 1.17026,0 2.12774,-0.14938 2.12774,-0.33195 z m -13.60715,-0.57519 c 0.30929,-0.30928 0.5718,-1.20605 0.5938,-2.02847 0.0954,-3.56636 0.92349,-7.31972 2.3032,-10.4395 0.49882,-1.12791 0.78411,-2.29136 0.6717,-2.73923 -0.10747,-0.42821 -0.0537,-1.14485 0.11954,-1.59253 0.8912,-2.30336 1.86494,-7.40247 1.71419,-8.97668 -0.2468,-2.57736 -1.18763,-7.18103 -1.7928,-8.77258 -0.2947,-0.77503 -0.61031,-2.2029 -0.70135,-3.173044 -0.091,-0.97014 -0.40952,-2.63701 -0.70772,-3.70416 -0.2982,-1.06716 -0.63589,-3.60716 -0.75041,-5.64445 -0.11453,-2.03729 -0.29263,-4.73604 -0.3958,-5.99722 -0.17734,-2.16806 0.28192,-5.54466 1.29552,-9.525 0.60336,-2.36934 2.43541,-8.14049 2.96771,-9.34862 0.86814,-1.97034 1.93957,-5.466213 1.93957,-6.328434 0,-0.471667 -0.13743,-1.225098 -0.30539,-1.67429 -0.78745,-2.105982 -1.08308,-18.911612 -0.39638,-22.53259 0.18941,-0.998721 0.25361,-2.177493 0.14267,-2.619492 -0.11093,-0.442002 0.11785,-2.370501 0.50841,-4.285552 1.45131,-7.116248 1.60508,-9.014524 0.81557,-10.067978 -0.33893,-0.452247 -1.31938,-2.171644 -2.17876,-3.82088 -1.51486,-2.907165 -1.56132,-3.092038 -1.52357,-6.0620642 0.0254,-1.99778 0.28559,-3.838575 0.74794,-5.291667 1.32411,-4.161399 1.54287,-5.944228 1.39887,-11.400438 -0.10609,-4.0198468 -0.29585,-5.7052568 -0.78952,-7.0124918 -0.52068,-1.378772 -0.5664,-1.854459 -0.23,-2.393119 0.31714,-0.507831 0.3234,-1.030465 0.0256,-2.136428 -0.44079,-1.636967 -2.15673,-5.005778 -3.08013,-6.047047 -1.00475,-1.133002 -4.76223,-3.753971 -5.38179,-3.753971 -0.31916,0 -0.86814,-0.318072 -1.21996,-0.706827 -0.35182,-0.388754 -2.25394,-1.483602 -4.22694,-2.432993 -3.14201,-1.511908 -3.80285,-1.707202 -5.32404,-1.573375 -3.00926,0.264742 -6.93428,1.267664 -7.61151,1.944894 -0.3584,0.358398 -0.81682,0.651634 -1.0187,0.651634 -1.05308,0 -6.33572,4.724166 -6.33572,5.665912 0,0.316105 -0.33597,0.877153 -0.74662,1.246773 -1.61123,1.450288 -2.67349,3.475128 -2.91094,5.54876 -0.1294,1.129975 -0.46741,2.61008 -0.75113,3.289121 -1.04153,2.492735 -1.05834,5.4449 -0.0544,9.5596328 1.64083,6.72523604 3.04771,12.22923 3.44957,13.49536 0.21554,0.679097 0.51243,3.139722 0.65975,5.4680562 0.14732,2.328333 0.43601,4.654113 0.64154,5.168399 0.64402,1.611549 0.0209,12.96311 -1.03314,18.820492 -0.20949,1.164166 -0.4297,6.244167 -0.48936,11.28889 -0.1059,8.953236 -0.34151,11.38857 -1.41719,14.648313 -0.7803,2.3646 -0.8114,7.70035 -0.0674,11.5674 0.34761,1.80683 0.7006,4.34683 0.78441,5.64444 0.0838,1.29761 0.25312,3.15304 0.37624,4.12318 0.12312,0.97014 0.28398,2.24014 0.35748,2.82223 0.0735,0.58208 0.22484,3.74019 0.33633,7.01802 0.2284,6.71444 -0.25394,10.252324 -1.79217,13.145324 -0.47889,0.90067 -0.8707,1.91204 -0.8707,2.24751 0,0.33546 -0.23813,1.17984 -0.52917,1.8764 -0.67165,1.60747 -0.67012,4.15071 0.004,6.37229 0.28894,0.95247 0.52535,2.59897 0.52535,3.65889 0,1.05992 0.25433,3.61438 0.56517,5.67657 0.35157,2.3324 0.48778,4.70213 0.36039,6.27021 -0.1475,1.81583 -0.0798,2.62447 0.24206,2.8916 0.77228,0.64093 7.312,1.07757 8.57292,0.57238 1.36802,-0.54809 3.84153,-0.39057 4.51995,0.28785 0.36724,0.36724 1.43189,0.51877 3.79646,0.54034 4.09811,0.0374 8.73649,0.34552 11.04722,0.73386 2.5887,0.43505 2.54903,0.43711 3.1498,-0.16366 z m 5.82064,0.22475 c 0.37558,-0.23769 0.51449,-1.20127 0.54593,-3.78696 0.0402,-3.31025 0.33905,-5.25694 2.15686,-14.05148 0.79597,-3.85089 0.70685,-4.96255 -0.32891,-4.10295 -0.67292,0.55848 -1.65187,4.56192 -1.83444,7.50203 -0.081,1.30497 -0.37904,2.97902 -0.66223,3.72013 -0.4847,1.26844 -2.32126,9.66427 -2.32126,10.61161 0,0.50546 1.6973,0.5802 2.44405,0.10762 z m 4.39738,-28.0979 c 0.33478,-0.87243 0.25579,-1.20587 -0.28564,-1.20587 -0.56491,0 -0.88808,0.66258 -0.64524,1.32292 0.22386,0.60875 0.67408,0.55214 0.93088,-0.11705 z m 1.62524,-4.92117 c 0,-0.29716 0.30547,-1.4481 0.67883,-2.55764 0.37336,-1.10954 0.84766,-3.366724 1.05401,-5.015954 0.20634,-1.64924 0.52118,-3.71299 0.69963,-4.58611 0.98242,-4.80677 1.09334,-6.42808 1.03777,-15.16945 -0.0914,-14.3772 -0.22742,-16.82152 -1.01996,-18.330369 -0.31316,-0.596184 -1.32613,-9.08594 -1.74851,-14.654355 -0.14718,-1.940278 -0.60341,-4.546184 -1.01385,-5.790904 -0.41044,-1.244716 -0.74625,-2.722524 -0.74625,-3.284012 0,-0.561492 -0.12633,-0.942813 -0.28074,-0.847386 -0.38765,0.239582 -0.44853,18.104282 -0.0651,19.112704 0.17037,0.448116 0.33525,2.373595 0.36639,4.278846 0.0311,1.905247 0.21032,4.892836 0.39816,6.639086 0.18785,1.74625 0.30809,6.19125 0.2672,9.87778 -0.0409,3.68653 -0.0647,7.02028 -0.0529,7.40833 0.1609,5.29044 0.10984,16.08135 -0.0914,19.314594 -0.18246,2.93163 -0.14459,4.14514 0.12937,4.14514 0.21305,0 0.38737,-0.24314 0.38737,-0.5403 z m -3.52061,-7.397204 c 0.0303,-1.55222 -0.065,-5.1241 -0.21155,-7.9375 -0.25485,-4.89048 -0.29189,-8.73632 -0.1512,-15.69862 0.10077,-4.98697 0.0981,-5.00895 -0.53742,-4.37346 -0.29712,0.29712 -0.67811,1.32333 -0.84664,2.28045 -0.16854,0.95713 -0.64423,3.48649 -1.0571,5.62079 -0.41287,2.13431 -0.65311,4.27743 -0.53387,4.7625 0.11924,0.48507 0.20171,2.15195 0.18327,3.70417 -0.0516,4.34602 1.31787,12.93306 2.35388,14.759214 0.42204,0.74393 0.75028,-0.534204 0.80063,-3.117544 z m -42.16896,-10.41478 c -0.12258,-0.19834 -0.44507,-2.2224 -0.71664,-4.49792 -1.05088,-8.80538 -1.3475,-10.52171 -2.45253,-14.19147 -0.32134,-1.06715 -0.9767,-3.52778 -1.45636,-5.46806 -0.47965,-1.94028 -1.12415,-4.073692 -1.43222,-4.740922 -0.30807,-0.66723 -0.70986,-2.334105 -0.89288,-3.704167 -0.18301,-1.370062 -0.41614,-3.086333 -0.51805,-3.813937 -0.10978,-0.783714 -0.37937,-1.322917 -0.66143,-1.322917 -0.27097,0 -0.58288,0.570043 -0.72386,1.322917 -0.13626,0.727604 -0.45831,1.827434 -0.71567,2.444065 -0.40493,0.970171 -0.5328,3.664723 -0.45739,9.638571 0.031,2.45501 4.36256,13.2211 6.35824,15.80338 0.34443,0.44567 0.73741,1.31647 0.87329,1.9351 0.13587,0.61863 0.4649,1.45729 0.73118,1.86368 0.26628,0.40639 0.3925,0.83053 0.2805,0.94253 -0.112,0.112 0.0494,0.69297 0.35869,1.29106 0.30928,0.59808 0.55911,1.16846 0.55518,1.2675 -0.049,1.23404 0.0729,1.5912 0.54284,1.5912 0.30249,0 0.44969,-0.16228 0.32711,-0.36061 z m -1.12815,-31.8512 c 0.0975,-0.253997 0.14515,-2.754309 0.10596,-5.556251 -0.0762,-5.449859 0.36872,-11.758493 0.90024,-12.764174 0.21729,-0.411145 0.15723,-0.937832 -0.18171,-1.593261 -0.34973,-0.676307 -0.5632,-2.722828 -0.69028,-6.61777 -0.17476,-5.356151 -0.4776,-7.250621 -1.23374,-7.717939 -0.18467,-0.114134 -0.61344,-1.35987 -0.95281,-2.768297 -0.33938,-1.40843 -0.83308,-2.98946 -1.09711,-3.513402 -0.26403,-0.523942 -0.48005,-1.34801 -0.48005,-1.831263 0,-1.043075 -0.65391,-1.564686 -1.0998,-0.877287 -0.17344,0.267395 -0.25455,4.29617 -0.18025,8.952837 0.12091,7.576722 0.27918,10.15352 1.13755,18.520835 0.12938,1.261181 0.25406,3.107461 0.27706,4.102845 0.0338,1.461459 0.20701,1.944031 0.90007,2.507276 0.55476,0.450854 0.88707,1.120708 0.93979,1.894378 0.0449,0.658291 0.20294,2.228766 0.35129,3.489947 0.14836,1.26118 0.30092,2.570868 0.33902,2.910417 0.0381,0.339548 0.0891,0.776111 0.11339,0.970138 0.0636,0.508417 0.64291,0.434221 0.85138,-0.109029 z m 49.46916,-21.145833 c -0.22253,-1.433192 -1.13053,-4.322679 -2.18943,-6.967362 l -0.49437,-1.234723 0.24383,1.234723 c 0.13411,0.679097 0.26637,1.790347 0.29392,2.469444 0.0276,0.679098 0.17875,1.552223 0.33601,1.940278 0.83086,2.050296 1.24829,3.35139 1.0752,3.35139 -0.10689,0 -0.0962,0.15875 0.0237,0.352777 0.54789,0.886496 0.93094,0.26893 0.71116,-1.146527 z m 3.97779,-4.860474 c 0.61313,-5.075125 -0.66542,-15.997529 -2.15111,-18.3765 -0.22793,-0.364966 -0.92622,-0.7595902 -1.55175,-0.8769422 -1.53311,-0.287613 -1.74235,-0.636319 -2.02702,-3.378109 -0.15221,-1.466074 -0.48324,-2.631669 -0.87599,-3.084512 -0.34722,-0.40035 -0.90505,-1.483004 -1.23962,-2.40589596 -1.33978,-3.69570704 -1.52958,-4.12197204 -1.88869,-4.24167304 -0.54116,-0.180386 -0.9041,2.71581804 -0.87389,6.973408 0.022,3.099108 0.18246,4.136352 0.98238,6.350001 0.52585,1.4552082 1.22338,2.9633342 1.55006,3.3513892 0.71512,0.849471 1.79918,3.181746 1.79918,3.870795 0,0.27251 0.45996,1.338686 1.02215,2.369284 0.56218,1.030594 1.3414,2.905686 1.7316,4.166867 0.3902,1.26118 0.96113,2.769305 1.26873,3.351389 0.30761,0.582083 0.56026,1.326776 0.56146,1.654873 0.001,0.328098 0.16092,0.694655 0.35495,0.814571 0.19402,0.119917 0.35277,0.579078 0.35277,1.020357 0,0.732399 0.32954,1.413532 0.56835,1.174726 0.0539,-0.05389 0.24128,-1.2842 0.41644,-2.734028 z m -51.20363,-17.98189 c -0.13259,-1.8326272 -0.46479,-3.1879722 -1.08082,-4.4097222 -0.48916,-0.970139 -0.89435,-2.101688 -0.90042,-2.514558 -0.006,-0.412867 -0.24915,-1.320578 -0.5402,-2.017141 -0.29104,-0.69656 -0.52916,-1.91445496 -0.52916,-2.70643396 0,-0.79197904 -0.22892,-1.88264504 -0.50871,-2.42370404 -0.2798,-0.541062 -0.86771,-2.755677 -1.30647,-4.92137 -0.43877,-2.1656958 -0.89909,-3.9376278 -1.02295,-3.9376278 -0.93387,0 -1.44185,6.5781028 -0.72193,9.3486118 0.20167,0.776111 0.62601,2.44298604 0.94297,3.70416704 0.31697,1.26117996 0.97639,3.16618096 1.46538,4.23333296 1.56583,3.417165 2.62608,6.8221272 2.48925,7.9941402 -0.1026,0.878875 0.0303,1.209283 0.58786,1.461128 1.04104,0.47026 1.35743,-0.601278 1.1252,-3.810823 z m 44.88222,-21.343057 c -0.16613,-1.552222 -0.37778,-3.854098 -0.47034,-5.115278 -0.24109,-3.28521 -0.71264,-5.429962 -1.9003,-8.643057 -3.06803,-8.300295 -3.30272,-8.733519 -5.26837,-9.724961 -0.5275,-0.266064 -1.69944,-1.156889 -2.60431,-1.97961 -0.90487,-0.822721 -2.09549,-1.592824 -2.64583,-1.71134 -0.55034,-0.118517 -1.61093,-0.521858 -2.35687,-0.896315 -1.4675,-0.736673 -4.06868,-0.878623 -6.35979,-0.34706 -1.9014,0.441146 -2.34505,0.975955 -1.06623,1.285313 0.56164,0.135866 2.5899,0.947359 4.50724,1.803319 1.91734,0.85596 3.7159,1.468101 3.99678,1.360313 0.28089,-0.107787 1.15405,-0.0931 1.94035,0.03263 1.09842,0.175646 1.56187,0.470558 2.00043,1.272967 0.31395,0.574397 1.54322,2.364207 2.73173,3.977355 1.1885,1.613148 2.32792,3.381735 2.53205,3.930193 0.20413,0.548457 0.71549,1.87032 1.13636,2.937473 0.85152,2.159075 1.20339,3.596059 1.77087,7.231945 0.21199,1.358195 0.47347,2.945695 0.58107,3.527778 0.1076,0.582084 0.21583,1.549443 0.24052,2.1496908 0.0482,1.173085 0.87817,2.469148 1.28737,2.010399 0.13713,-0.153744 0.11341,-1.549534 -0.0527,-3.1017558 z m -46.27143,-8.995197 c 0.0406,-1.035312 0.49616,-3.040151 1.01226,-4.455197 1.07893,-2.958257 3.73029,-6.292523 6.85827,-8.624768 1.06335,-0.792835 2.25086,-1.753547 2.63891,-2.134914 0.88585,-0.870582 3.60096,-2.593536 6.32655,-4.014703 2.5766,-1.343483 3.00076,-2.097548 1.03671,-1.843044 -2.08026,0.269563 -3.64875,0.993695 -5.71924,2.640432 -2.03874,1.621479 -2.22323,1.685062 -3.26761,1.126128 -0.97333,-0.520907 -3.62129,0.936442 -3.78472,2.082979 -0.078,0.547024 -0.52568,0.989243 -1.35037,1.333822 -1.03378,0.431938 -1.43544,0.955968 -2.47831,3.233305 -0.68452,1.494802 -1.38802,3.590947 -1.56333,4.6581 -0.58351,3.551907 -0.98485,7.528911 -0.79137,7.841965 0.48292,0.781394 1.01476,-0.124827 1.08225,-1.844105 z"
         style="fill:#000000;stroke-width:0.35277781" />
    </g>
  </g>
</svg>
